<svg width="212" height="44" viewBox="0 0 212 44" fill="none" xmlns="http://www.w3.org/2000/svg">
<rect x="1" y="1" width="210" height="42" rx="21" stroke="url(#paint0_linear_1182_523)" stroke-width="2"/>
<path d="M41.4881 27V17.1016H47.6952V18.4004H42.992V21.3945H47.367V22.6797H42.992V25.7012H47.7498V27H41.4881ZM50.4399 19.5762L52.0669 22.4609L53.7075 19.5762H55.3071L52.9966 23.2812L55.3208 27H53.7348L52.0669 24.2246L50.4126 27H48.813L51.1098 23.2812L48.8266 19.5762H50.4399ZM56.4933 29.7891V19.5762H57.9152V20.7793H58.0382C58.298 20.3145 58.8038 19.4805 60.171 19.4805C61.962 19.4805 63.2882 20.8887 63.2882 23.3086C63.2882 25.7012 61.9894 27.1504 60.1847 27.1504C58.8312 27.1504 58.298 26.3301 58.0382 25.8379H57.9562V29.7891H56.4933ZM57.9288 23.2812C57.9288 24.8398 58.6124 25.9062 59.8566 25.9062C61.1417 25.9062 61.8116 24.7715 61.8116 23.2812C61.8116 21.8184 61.1554 20.7246 59.8566 20.7246C58.5988 20.7246 57.9288 21.7363 57.9288 23.2812ZM66.0603 17.1016V27H64.5974V17.1016H66.0603ZM70.8422 27.1504C68.7367 27.1504 67.3695 25.6191 67.3695 23.3223C67.3695 21.0117 68.7367 19.4805 70.8422 19.4805C72.934 19.4805 74.3012 21.0117 74.3012 23.3223C74.3012 25.6191 72.934 27.1504 70.8422 27.1504ZM70.8422 25.9336C72.182 25.9336 72.8246 24.7441 72.8246 23.3223C72.8246 21.9004 72.182 20.6836 70.8422 20.6836C69.475 20.6836 68.8324 21.9004 68.8324 23.3223C68.8324 24.7441 69.475 25.9336 70.8422 25.9336ZM75.5967 27V19.5762H77.0049V20.752H77.087C77.3604 19.959 78.0987 19.4668 78.9737 19.4668C79.1514 19.4668 79.4385 19.4805 79.5889 19.4941V20.8887C79.4659 20.8613 79.1241 20.8066 78.8233 20.8066C77.8116 20.8066 77.0596 21.5039 77.0596 22.4746V27H75.5967ZM83.4958 27.1504C81.3083 27.1504 79.9684 25.6465 79.9684 23.3359C79.9684 21.0527 81.3356 19.4805 83.4001 19.4805C85.0954 19.4805 86.695 20.5332 86.695 23.2129V23.7324H81.4177C81.4587 25.1406 82.2858 25.9473 83.5095 25.9473C84.3434 25.9473 84.8766 25.5918 85.1227 25.1406H86.5993C86.2712 26.3438 85.1227 27.1504 83.4958 27.1504ZM81.4313 22.6387H85.2595C85.2595 21.5039 84.5348 20.6836 83.4137 20.6836C82.2448 20.6836 81.486 21.5859 81.4313 22.6387ZM91.4052 27V17.1016H97.5439V18.4004H92.9091V21.3945H97.1064V22.6797H92.9091V27H91.4052ZM102.709 17.1016V27H101.191V18.6055H101.136L98.7711 20.1504V18.7148L101.232 17.1016H102.709ZM110.454 27L107.706 17.1016H109.292L111.22 24.7578H111.302L113.311 17.1016H114.87L116.88 24.7578H116.962L118.89 17.1016H120.475L117.727 27H116.21L114.132 19.6035H114.05L111.972 27H110.454ZM125.189 17.1016V27H123.671V18.6055H123.617L121.251 20.1504V18.7148L123.712 17.1016H125.189ZM127.906 27L132.322 18.4688V18.3867H127.223V17.1016H133.881V18.4414L129.479 27H127.906Z" fill="url(#paint1_linear_1182_523)"/>
<path d="M144 25H173L166.508 19" stroke="url(#paint2_linear_1182_523)" stroke-width="1.5"/>
<defs>
<linearGradient id="paint0_linear_1182_523" x1="1" y1="22" x2="211" y2="22" gradientUnits="userSpaceOnUse">
<stop stop-color="#00F4D0"/>
<stop offset="0.331731" stop-color="#008E79"/>
<stop offset="0.658654" stop-color="#00F4D0"/>
<stop offset="1" stop-color="#008E79"/>
</linearGradient>
<linearGradient id="paint1_linear_1182_523" x1="40" y1="22" x2="135" y2="22" gradientUnits="userSpaceOnUse">
<stop stop-color="#00F4D0"/>
<stop offset="0.567308" stop-color="#03A38B"/>
<stop offset="1" stop-color="#00F4D0"/>
</linearGradient>
<linearGradient id="paint2_linear_1182_523" x1="144" y1="22" x2="173" y2="22" gradientUnits="userSpaceOnUse">
<stop stop-color="#03A38B"/>
<stop offset="1" stop-color="#00F4D0"/>
</linearGradient>
</defs>
</svg>
