<svg width="30" height="1965" viewBox="0 0 30 1965" fill="none" xmlns="http://www.w3.org/2000/svg">
<path d="M30 40.5L16.5312 50.377V1932.06L29.6934 1921.88L15.1611 1965L0.628906 1921.88L13.5312 1931.86V50.4229L0 40.5V24L15 34.5L30 24V40.5ZM30 18.5L15 29.5L0 18.5V12L15 22.5L30 12V18.5ZM30 6.5L15 17.5L0 6.5V0L15 10.5L30 0V6.5Z" fill="url(#paint0_linear_1417_1004)"/>
<circle cx="15" cy="520" r="9" fill="#00F4D0"/>
<circle cx="15" cy="809" r="9" fill="#00F4D0"/>
<circle cx="15" cy="1625" r="9" fill="#00F4D0"/>
<defs>
<linearGradient id="paint0_linear_1417_1004" x1="15" y1="0" x2="15" y2="1965" gradientUnits="userSpaceOnUse">
<stop stop-color="#00F4D0"/>
<stop offset="0.0124682" stop-color="#71E7D8"/>
<stop offset="0.0278667" stop-color="#80A6CC"/>
<stop offset="0.0441695" stop-color="#5D91C4"/>
<stop offset="0.163462" stop-color="#80A6CC"/>
<stop offset="0.340846" stop-color="#00F4D0"/>
<stop offset="0.485577" stop-color="#9DFFF1"/>
<stop offset="0.606764" stop-color="#00F4D0"/>
<stop offset="0.798077" stop-color="#80A6CC"/>
<stop offset="0.983137" stop-color="#5D91C4"/>
<stop offset="0.992721" stop-color="#45E2D4"/>
<stop offset="1" stop-color="#9DFFF1"/>
</linearGradient>
</defs>
</svg>
