<svg width="134" height="42" viewBox="0 0 134 42" fill="none" xmlns="http://www.w3.org/2000/svg">
<rect x="1" y="1" width="132" height="40" rx="20" stroke="url(#paint0_linear_1136_1826)" stroke-width="2"/>
<path d="M22.27 16.1016H24.102L27.2329 23.7715H27.3559L30.4868 16.1016H32.3188V26H30.8832V18.8496H30.7875L27.8891 25.9863H26.6996L23.7875 18.8359H23.7055V26H22.27V16.1016ZM42.8018 21.0508C42.8018 24.209 40.9014 26.1367 38.3448 26.1367C35.7608 26.1367 33.8741 24.209 33.8741 21.0508C33.8741 17.8789 35.7608 15.9648 38.3448 15.9648C40.9014 15.9648 42.8018 17.8789 42.8018 21.0508ZM41.3116 21.0508C41.3116 18.6445 40.0401 17.3457 38.3448 17.3457C36.6358 17.3457 35.3643 18.6445 35.3643 21.0508C35.3643 23.457 36.6358 24.7559 38.3448 24.7559C40.0401 24.7559 41.3116 23.457 41.3116 21.0508ZM44.3571 26V16.1016H47.8845C50.1814 16.1016 51.3161 17.3867 51.3161 19.2051C51.3161 20.5381 50.7146 21.5498 49.5114 21.9941L51.6989 26H49.99L47.9802 22.2676H47.8845H45.8611V26H44.3571ZM45.8611 20.9688H47.7341C49.197 20.9688 49.7986 20.3262 49.7986 19.2051C49.7986 18.084 49.197 17.3867 47.7341 17.3867H45.8611V20.9688ZM52.8441 26V16.1016H59.0511V17.4004H54.348V20.3945H58.723V21.6797H54.348V24.7012H59.1058V26H52.8441ZM64.9098 16.1016L67.6579 24.1543H67.7672L70.5153 16.1016H72.1422L68.5739 26H66.8375L63.2829 16.1016H64.9098ZM74.7639 16.1016V26H73.26V16.1016H74.7639ZM76.6337 26V16.1016H82.8407V17.4004H78.1376V20.3945H82.5126V21.6797H78.1376V24.7012H82.8954V26H76.6337ZM86.5015 26L83.7535 16.1016H85.3394L87.2672 23.7578H87.3492L89.3589 16.1016H90.9175L92.9273 23.7578H93.0093L94.9371 16.1016H96.523L93.775 26H92.2574L90.1793 18.6035H90.0972L88.0191 26H86.5015Z" fill="url(#paint1_linear_1136_1826)"/>
<path d="M108.75 20.25H114V21.75H108.75V27H107.25V21.75H102V20.25H107.25V15H108.75V20.25Z" fill="url(#paint2_linear_1136_1826)"/>
<defs>
<linearGradient id="paint0_linear_1136_1826" x1="0" y1="21" x2="134" y2="21" gradientUnits="userSpaceOnUse">
<stop stop-color="#00F4D0"/>
<stop offset="0.35" stop-color="#008E79"/>
<stop offset="0.65" stop-color="#00F4D0"/>
<stop offset="1" stop-color="#008E79"/>
</linearGradient>
<linearGradient id="paint1_linear_1136_1826" x1="21" y1="21" x2="97" y2="21" gradientUnits="userSpaceOnUse">
<stop stop-color="#00F4D0"/>
<stop offset="1" stop-color="#008E79"/>
</linearGradient>
<linearGradient id="paint2_linear_1136_1826" x1="114" y1="21" x2="102" y2="21" gradientUnits="userSpaceOnUse">
<stop stop-color="#00F4D0"/>
<stop offset="1" stop-color="#008E79"/>
</linearGradient>
</defs>
</svg>
