<svg width="31" height="31" viewBox="0 0 31 31" fill="none" xmlns="http://www.w3.org/2000/svg">
<path d="M8.94167 0H21.8917C26.825 0 30.8333 4.00833 30.8333 8.94167V21.8917C30.8333 24.2631 29.8913 26.5375 28.2144 28.2144C26.5375 29.8913 24.2631 30.8333 21.8917 30.8333H8.94167C4.00833 30.8333 0 26.825 0 21.8917V8.94167C0 6.57019 0.942066 4.29584 2.61895 2.61895C4.29584 0.942066 6.57019 0 8.94167 0ZM8.63333 3.08333C7.16138 3.08333 5.74972 3.66806 4.70889 4.70889C3.66806 5.74972 3.08333 7.16138 3.08333 8.63333V22.2C3.08333 25.2679 5.56542 27.75 8.63333 27.75H22.2C23.672 27.75 25.0836 27.1653 26.1244 26.1244C27.1653 25.0836 27.75 23.672 27.75 22.2V8.63333C27.75 5.56542 25.2679 3.08333 22.2 3.08333H8.63333ZM23.5104 5.39583C24.0215 5.39583 24.5117 5.59887 24.8731 5.96026C25.2345 6.32166 25.4375 6.81182 25.4375 7.32292C25.4375 7.83401 25.2345 8.32417 24.8731 8.68557C24.5117 9.04697 24.0215 9.25 23.5104 9.25C22.9993 9.25 22.5092 9.04697 22.1478 8.68557C21.7864 8.32417 21.5833 7.83401 21.5833 7.32292C21.5833 6.81182 21.7864 6.32166 22.1478 5.96026C22.5092 5.59887 22.9993 5.39583 23.5104 5.39583ZM15.4167 7.70833C17.461 7.70833 19.4217 8.52046 20.8673 9.96605C22.3129 11.4116 23.125 13.3723 23.125 15.4167C23.125 17.461 22.3129 19.4217 20.8673 20.8673C19.4217 22.3129 17.461 23.125 15.4167 23.125C13.3723 23.125 11.4116 22.3129 9.96605 20.8673C8.52046 19.4217 7.70833 17.461 7.70833 15.4167C7.70833 13.3723 8.52046 11.4116 9.96605 9.96605C11.4116 8.52046 13.3723 7.70833 15.4167 7.70833ZM15.4167 10.7917C14.19 10.7917 13.0137 11.2789 12.1463 12.1463C11.2789 13.0137 10.7917 14.19 10.7917 15.4167C10.7917 16.6433 11.2789 17.8197 12.1463 18.687C13.0137 19.5544 14.19 20.0417 15.4167 20.0417C16.6433 20.0417 17.8197 19.5544 18.687 18.687C19.5544 17.8197 20.0417 16.6433 20.0417 15.4167C20.0417 14.19 19.5544 13.0137 18.687 12.1463C17.8197 11.2789 16.6433 10.7917 15.4167 10.7917Z" fill="white"/>
</svg>
