<svg width="25" height="28" viewBox="0 0 25 28" fill="none" xmlns="http://www.w3.org/2000/svg">
<path d="M19.1783 4.3475C18.1247 3.14427 17.544 1.59932 17.5442 0H12.7804V19.1167C12.7444 20.1514 12.3079 21.1317 11.563 21.8508C10.818 22.5699 9.82288 22.9715 8.7875 22.9708C6.59833 22.9708 4.77917 21.1825 4.77917 18.9625C4.77917 16.3108 7.33833 14.3221 9.97458 15.1392V10.2675C4.65583 9.55833 0 13.69 0 18.9625C0 24.0962 4.255 27.75 8.77208 27.75C13.6129 27.75 17.5442 23.8188 17.5442 18.9625V9.26542C19.4759 10.6527 21.7951 11.397 24.1733 11.3929V6.62917C24.1733 6.62917 21.275 6.76792 19.1783 4.3475Z" fill="white"/>
</svg>
