<svg width="31" height="22" viewBox="0 0 31 22" fill="none" xmlns="http://www.w3.org/2000/svg">
<path d="M12.3333 15.4167L20.3346 10.7917L12.3333 6.16667V15.4167ZM30.155 3.34542C30.3554 4.07 30.4942 5.04125 30.5867 6.27458C30.6946 7.50792 30.7408 8.57167 30.7408 9.49667L30.8333 10.7917C30.8333 14.1679 30.5867 16.65 30.155 18.2379C29.7696 19.6254 28.8754 20.5196 27.4879 20.905C26.7633 21.1054 25.4375 21.2442 23.4025 21.3367C21.3983 21.4446 19.5638 21.4908 17.8679 21.4908L15.4167 21.5833C8.95708 21.5833 4.93333 21.3367 3.34542 20.905C1.95792 20.5196 1.06375 19.6254 0.678333 18.2379C0.477917 17.5133 0.339167 16.5421 0.246667 15.3088C0.13875 14.0754 0.0924999 13.0117 0.0924999 12.0867L0 10.7917C0 7.41542 0.246667 4.93333 0.678333 3.34542C1.06375 1.95792 1.95792 1.06375 3.34542 0.678333C4.07 0.477917 5.39583 0.339166 7.43083 0.246666C9.435 0.13875 11.2696 0.0924999 12.9654 0.0924999L15.4167 0C21.8763 0 25.9 0.246667 27.4879 0.678333C28.8754 1.06375 29.7696 1.95792 30.155 3.34542Z" fill="white"/>
</svg>
