<svg width="1361" height="210" viewBox="0 0 1361 210" fill="none" xmlns="http://www.w3.org/2000/svg">
<path d="M105.307 0.5C123.639 0.5 141.668 5.38839 157.558 14.5557C173.195 23.5773 186.165 36.4486 195.31 52H195.012L195.444 52.75C204.612 68.6399 209.5 86.6679 209.5 105C209.5 123.332 204.612 141.36 195.444 157.25C186.278 173.139 173.139 186.278 157.25 195.444C141.36 204.612 123.332 209.5 105 209.5C86.6679 209.5 68.6399 204.612 52.75 195.444C36.8612 186.278 23.7223 173.139 14.5557 157.25C5.38847 141.36 0.5 123.332 0.5 105C0.5 86.6681 5.3885 68.6425 14.8594 52.7559L14.8633 52.75C24.0299 36.8613 37.1679 23.7223 53.0566 14.5557C68.9465 5.38846 86.9746 0.500066 105.307 0.5ZM105.119 122.036L24.6807 154.58L24.1279 154.805L24.4453 155.31C32.7766 168.578 44.1951 179.689 57.7773 187.406V187.407C72.2834 195.741 88.6411 200.061 105.307 200.062C121.972 200.062 138.331 195.741 152.837 187.407L152.836 187.406C166.418 179.689 177.838 168.578 186.169 155.31L186.486 154.805L185.934 154.58L105.494 122.036L105.307 121.961L105.119 122.036ZM101.92 9.93848C86.4774 10.2473 71.046 14.8797 57.4727 22.5918L57.4707 22.5928C42.9641 30.9263 30.9263 42.9641 22.5928 57.4707C14.2595 71.9768 9.93848 88.3345 9.93848 105C9.93848 120.743 13.952 136.174 21.3574 150.06L21.6377 150.586L22.1064 150.218L90.2646 96.7969L90.4238 96.6729L90.4512 96.4727L102.425 10.5078L102.506 9.92676L101.92 9.93848ZM107.575 10.5078L119.549 96.4727L119.576 96.6729L119.736 96.7979L187.652 149.79L187.368 150.324H189.962L188.927 149.517C196.148 135.798 200.062 121.45 200.062 105C200.062 88.3345 195.74 71.9768 187.407 57.4707C179.074 42.9641 167.036 30.9263 152.529 22.5928L152.527 22.5918L151.25 21.8779C138.003 14.6099 123.335 10.5373 108.09 9.93945L107.492 9.91602L107.575 10.5078Z" fill="white" stroke="white"/>
<mask id="path-2-inside-1_838_3607" fill="white">
<path d="M1360 69.6802C1360 67.3547 1358.25 64.4477 1354.75 64.4477H1258.5C1256.17 64.4477 1253.25 66.1919 1253.25 69.6802V77.2384C1253.25 80.7267 1255.58 83.0523 1258.5 83.0523H1318.58C1322.08 83.0523 1322.08 84.7965 1322.08 88.8663C1322.08 92.9361 1322.08 94.6802 1318.58 94.6802H1196.08C1193.75 94.6802 1190.83 92.936 1190.83 89.4477V53.9826C1190.83 51.657 1192.58 48.75 1196.08 48.75H1353.58C1355.92 48.75 1358.83 47.0058 1358.83 43.5174V29.564C1358.83 27.2384 1357.08 24.3314 1353.58 24.3314H1158.17C1155.83 24.3314 1152.92 26.0756 1152.92 29.564V116.773C1152.92 119.099 1154.67 122.006 1158.17 122.006H1354C1357.74 122.006 1360 119.75 1360 116.773L1360 69.6802ZM1047.92 93.5174C1045.58 95.2616 1042.67 97.0058 1040.33 97.0058H1015.25C1011.75 97.0058 1009.42 95.2616 1007.67 93.5174L960.417 62.1221C958.083 60.3779 955.167 61.5407 955.167 64.4477V116.192C955.167 118.517 953.417 121.424 949.917 121.424H924.833C921.333 121.424 919 119.099 919 116.192V28.9826C919 25.4942 921.333 23.75 924.833 23.75H951.667C954 23.75 957.5 24.3314 959.25 26.0756L1023.42 68.5174C1025.75 70.2616 1029.25 70.2616 1031 68.5174L1095.17 26.0756C1097.5 24.3314 1100.42 23.75 1102.75 23.75H1129.58C1131.92 23.75 1134.83 25.4942 1134.83 28.9826V116.192C1134.83 118.517 1133.08 121.424 1129.58 121.424H1104.5C1101 121.424 1098.67 119.099 1098.67 116.192V64.4477C1098.67 60.9593 1096.92 60.3779 1093.42 62.1221L1047.92 93.5174ZM768.5 50.4942C766.75 50.4942 766 50.25 764.417 52.2384L749.25 72.0058C748 73.75 749.25 74.3314 749.833 74.3314H859.5C863 74.3314 863 72.5872 863 70.2616V56.3081C863 52.2384 863 50.4942 859.5 50.4942H767.917H768.5ZM704.333 123.169H671.667C669.917 123.169 668.5 121.75 668.167 120.843V119.099L737 28.9826C738.5 27.25 740.5 25.4942 742.833 25.4942H891C894.5 25.4942 896.833 28.9826 896.833 32.4709V117.936C896.833 120.262 895.083 123.169 891.583 123.169H866.5C864.167 123.169 861.25 121.424 861.25 117.936V105.145C861.25 101.657 861.25 101.076 857.75 101.076H727.667C725.333 101.076 723.583 102.82 722.417 104.564L713.083 118.517C711 120.75 707.833 123.169 704.333 123.169ZM638.417 122.587C641.917 122.587 645 120.75 647.167 117.936L714.25 30.7267C716.583 27.2384 714.833 24.9128 712.5 24.9128H698.5C696.167 24.9128 694 26.75 692.667 28.4012L623.833 118.517C622.5 120.25 623 121.75 624.417 122.587H638.417ZM591.75 122.587C595.25 122.587 598 120.75 600.5 117.936L667.583 30.7267C669.917 27.2384 668.167 24.9128 665.833 24.9128H647.167C644.833 24.9128 642.5 26.75 641.333 28.4012L572.5 118.517C571 120.75 572.5 122.006 573.083 122.587H591.75ZM515.333 123.75C512.5 123.75 511.833 121.424 511.833 120.843V119.099L580.667 28.9826C582.417 27.2384 584.167 25.4942 586.5 25.4942H613.917C617.417 25.4942 618 27.8198 615.667 31.3081L548.583 118.517C546 121.75 543.333 123.75 539.833 123.75H514.167H515.333ZM452 123.75C450.25 123.75 448.833 121.424 448.833 120.843V119.099L517.667 28.9826C519.417 27.2384 521.167 25.4942 523.5 25.4942H560.25C563.75 25.4942 564.333 27.8198 562 31.3081L494.917 118.517C492 122.25 489.667 123.75 486.167 123.75H451.167H452.333H452ZM348.5 123.75C346.75 123.75 345 121.424 345 120.843V119.099L413.833 28.9826C415.583 27.2384 417.333 25.4942 419.667 25.4942H501.333C504.833 25.4942 505.417 27.8198 503.083 31.3081L436 118.517C433.5 121.75 430.75 123.75 427.25 123.75H347.333H348.5Z"/>
</mask>
<path d="M1047.92 93.5174V92.5174H1047.33V93.5174V94.5174H1047.92V93.5174ZM1360 69.6802H1358V69.6802L1360 69.6802ZM1360 116.773L1362 116.773V116.773H1360ZM1047.92 93.5174L1046.78 91.8713L1046.75 91.8928L1046.72 91.9155L1047.92 93.5174ZM1007.67 93.5174L1009.08 92.1009L1008.94 91.9612L1008.77 91.8516L1007.67 93.5174ZM960.417 62.1221L959.219 63.724L959.264 63.7572L959.31 63.7879L960.417 62.1221ZM959.25 26.0756L957.838 27.4921L957.98 27.6333L958.147 27.7437L959.25 26.0756ZM1023.42 68.5174L1024.61 66.9155L1024.57 66.8811L1024.52 66.8493L1023.42 68.5174ZM1031 68.5174L1029.9 66.8493L1029.73 66.9597L1029.59 67.1009L1031 68.5174ZM1095.17 26.0756L1096.27 27.7437L1096.32 27.712L1096.36 27.6775L1095.17 26.0756ZM1093.42 62.1221L1092.52 60.332L1092.4 60.3953L1092.28 60.4759L1093.42 62.1221ZM764.417 52.2384L762.852 50.9925L762.841 51.0066L762.83 51.0209L764.417 52.2384ZM749.25 72.0058L747.663 70.7884L747.643 70.8143L747.624 70.8408L749.25 72.0058ZM668.167 120.843H666.167V121.199L666.289 121.533L668.167 120.843ZM668.167 119.099L666.577 117.885L666.167 118.422V119.099H668.167ZM737 28.9826L735.488 27.6735L735.448 27.7198L735.411 27.7685L737 28.9826ZM722.417 104.564L724.079 105.676V105.676L722.417 104.564ZM713.083 118.517L714.546 119.882L714.656 119.764L714.746 119.629L713.083 118.517ZM647.167 117.936L648.751 119.156L648.752 119.155L647.167 117.936ZM714.25 30.7267L715.835 31.9462L715.876 31.8937L715.912 31.8387L714.25 30.7267ZM692.667 28.4012L691.111 27.1446L691.094 27.1657L691.077 27.1871L692.667 28.4012ZM623.833 118.517L625.418 119.737L625.423 119.731L623.833 118.517ZM624.417 122.587L623.399 124.309L623.87 124.587H624.417V122.587ZM600.5 117.936L601.995 119.264L602.042 119.212L602.085 119.155L600.5 117.936ZM667.583 30.7267L669.169 31.9462L669.209 31.8937L669.246 31.8387L667.583 30.7267ZM641.333 28.4012L642.923 29.6152L642.945 29.5856L642.967 29.5553L641.333 28.4012ZM572.5 118.517L570.911 117.303L570.874 117.352L570.84 117.402L572.5 118.517ZM573.083 122.587L571.671 124.004L572.257 124.587H573.083V122.587ZM511.833 119.099L510.244 117.885L509.833 118.422V119.099H511.833ZM580.667 28.9826L579.255 27.566L579.159 27.6613L579.077 27.7685L580.667 28.9826ZM615.667 31.3081L617.252 32.5275L617.292 32.4751L617.329 32.4201L615.667 31.3081ZM548.583 118.517L550.146 119.766L550.157 119.752L550.169 119.737L548.583 118.517ZM448.833 119.099L447.244 117.885L446.833 118.422V119.099H448.833ZM517.667 28.9826L516.255 27.566L516.159 27.6613L516.077 27.7685L517.667 28.9826ZM562 31.3081L563.585 32.5275L563.626 32.4751L563.662 32.4201L562 31.3081ZM494.917 118.517L496.493 119.749L496.497 119.743L496.502 119.737L494.917 118.517ZM345 119.099L343.411 117.885L343 118.422V119.099H345ZM413.833 28.9826L412.421 27.566L412.326 27.6613L412.244 27.7685L413.833 28.9826ZM503.083 31.3081L504.669 32.5275L504.709 32.4751L504.746 32.4201L503.083 31.3081ZM436 118.517L437.582 119.741L437.585 119.737L436 118.517ZM1360 69.6802H1362C1362 66.5438 1359.63 62.4477 1354.75 62.4477V64.4477V66.4477C1356.87 66.4477 1358 68.1655 1358 69.6802H1360ZM1354.75 64.4477V62.4477H1258.5V64.4477V66.4477H1354.75V64.4477ZM1258.5 64.4477V62.4477C1255.37 62.4477 1251.25 64.8035 1251.25 69.6802H1253.25H1255.25C1255.25 67.5802 1256.96 66.4477 1258.5 66.4477V64.4477ZM1253.25 69.6802H1251.25V77.2384H1253.25H1255.25V69.6802H1253.25ZM1253.25 77.2384H1251.25C1251.25 81.6956 1254.35 85.0523 1258.5 85.0523V83.0523V81.0523C1256.82 81.0523 1255.25 79.7579 1255.25 77.2384H1253.25ZM1258.5 83.0523V85.0523H1318.58V83.0523V81.0523H1258.5V83.0523ZM1318.58 83.0523V85.0523C1319.33 85.0523 1319.65 85.1506 1319.77 85.2044C1319.81 85.2222 1319.8 85.2088 1319.83 85.2736C1319.9 85.4179 1319.99 85.7315 1320.03 86.3892C1320.08 87.0351 1320.08 87.8245 1320.08 88.8663H1322.08H1324.08C1324.08 87.8732 1324.08 86.9184 1324.02 86.0927C1323.96 85.2787 1323.83 84.3931 1323.46 83.5927C1323.05 82.7127 1322.39 82.009 1321.44 81.5724C1320.58 81.1721 1319.59 81.0523 1318.58 81.0523V83.0523ZM1322.08 88.8663H1320.08C1320.08 89.9081 1320.08 90.6975 1320.03 91.3434C1319.99 92.0011 1319.9 92.3146 1319.83 92.459C1319.8 92.5238 1319.81 92.5104 1319.77 92.5281C1319.65 92.582 1319.33 92.6802 1318.58 92.6802V94.6802V96.6802C1319.59 96.6802 1320.58 96.5605 1321.44 96.1601C1322.39 95.7236 1323.05 95.0198 1323.46 94.1399C1323.83 93.3394 1323.96 92.4539 1324.02 91.6399C1324.08 90.8141 1324.08 89.8594 1324.08 88.8663H1322.08ZM1318.58 94.6802V92.6802H1196.08V94.6802V96.6802H1318.58V94.6802ZM1196.08 94.6802V92.6802C1194.55 92.6802 1192.83 91.5477 1192.83 89.4477H1190.83H1188.83C1188.83 94.3244 1192.95 96.6802 1196.08 96.6802V94.6802ZM1190.83 89.4477H1192.83V53.9826H1190.83H1188.83V89.4477H1190.83ZM1190.83 53.9826H1192.83C1192.83 52.4678 1193.96 50.75 1196.08 50.75V48.75V46.75C1191.21 46.75 1188.83 50.8461 1188.83 53.9826H1190.83ZM1196.08 48.75V50.75H1353.58V48.75V46.75H1196.08V48.75ZM1353.58 48.75V50.75C1356.71 50.75 1360.83 48.3943 1360.83 43.5174H1358.83H1356.83C1356.83 45.6173 1355.12 46.75 1353.58 46.75V48.75ZM1358.83 43.5174H1360.83V29.564H1358.83H1356.83V43.5174H1358.83ZM1358.83 29.564H1360.83C1360.83 26.4274 1358.46 22.3314 1353.58 22.3314V24.3314V26.3314C1355.71 26.3314 1356.83 28.0494 1356.83 29.564H1358.83ZM1353.58 24.3314V22.3314H1158.17V24.3314V26.3314H1353.58V24.3314ZM1158.17 24.3314V22.3314C1155.04 22.3314 1150.92 24.6872 1150.92 29.564H1152.92H1154.92C1154.92 27.464 1156.63 26.3314 1158.17 26.3314V24.3314ZM1152.92 29.564H1150.92V116.773H1152.92H1154.92V29.564H1152.92ZM1152.92 116.773H1150.92C1150.92 119.91 1153.29 124.006 1158.17 124.006V122.006V120.006C1156.04 120.006 1154.92 118.288 1154.92 116.773H1152.92ZM1158.17 122.006V124.006H1354V122.006V120.006H1158.17V122.006ZM1354 122.006V124.006C1356.27 124.006 1358.28 123.316 1359.75 121.987C1361.22 120.648 1362 118.79 1362 116.773L1360 116.773L1358 116.773C1358 117.734 1357.65 118.491 1357.06 119.024C1356.46 119.568 1355.47 120.006 1354 120.006V122.006ZM1360 116.773H1362L1362 69.6802L1360 69.6802L1358 69.6802L1358 116.773H1360ZM1047.92 93.5174L1046.72 91.9155C1045.61 92.7471 1044.4 93.5441 1043.23 94.1256C1042.03 94.7233 1041.05 95.0058 1040.33 95.0058V97.0058V99.0058C1041.95 99.0058 1043.59 98.4162 1045.02 97.7057C1046.48 96.9792 1047.89 96.032 1049.11 95.1194L1047.92 93.5174ZM1040.33 97.0058V95.0058H1015.25V97.0058V99.0058H1040.33V97.0058ZM1015.25 97.0058V95.0058C1012.52 95.0058 1010.67 93.6835 1009.08 92.1009L1007.67 93.5174L1006.25 94.934C1008.17 96.8397 1010.98 99.0058 1015.25 99.0058V97.0058ZM1007.67 93.5174L1008.77 91.8516L961.523 60.4563L960.417 62.1221L959.31 63.7879L1006.56 95.1832L1007.67 93.5174ZM960.417 62.1221L961.614 60.5202C959.954 59.2792 957.893 58.949 956.131 59.7015C954.315 60.477 953.167 62.2586 953.167 64.4477H955.167H957.167C957.167 63.7298 957.476 63.4764 957.702 63.3799C957.982 63.2603 958.546 63.2208 959.219 63.724L960.417 62.1221ZM955.167 64.4477H953.167V116.192H955.167H957.167V64.4477H955.167ZM955.167 116.192H953.167C953.167 117.707 952.04 119.424 949.917 119.424V121.424V123.424C954.794 123.424 957.167 119.328 957.167 116.192H955.167ZM949.917 121.424V119.424H924.833V121.424V123.424H949.917V121.424ZM924.833 121.424V119.424C922.289 119.424 921 117.851 921 116.192H919H917C917 120.346 920.378 123.424 924.833 123.424V121.424ZM919 116.192H921V28.9826H919H917V116.192H919ZM919 28.9826H921C921 27.7138 921.404 27.0051 921.903 26.5788C922.45 26.1114 923.389 25.75 924.833 25.75V23.75V21.75C922.778 21.75 920.8 22.2606 919.305 23.5375C917.762 24.8554 917 26.7629 917 28.9826H919ZM924.833 23.75V25.75H951.667V23.75V21.75H924.833V23.75ZM951.667 23.75V25.75C952.688 25.75 953.973 25.8794 955.17 26.1933C956.404 26.5169 957.323 26.9792 957.838 27.4921L959.25 26.0756L960.662 24.659C959.427 23.4278 957.721 22.7273 956.185 22.3242C954.61 21.9113 952.979 21.75 951.667 21.75V23.75ZM959.25 26.0756L958.147 27.7437L1022.31 70.1856L1023.42 68.5174L1024.52 66.8493L960.353 24.4075L959.25 26.0756ZM1023.42 68.5174L1022.22 70.1194C1023.76 71.2701 1025.65 71.8256 1027.43 71.8256C1029.19 71.8256 1031.07 71.2735 1032.41 69.934L1031 68.5174L1029.59 67.1009C1029.18 67.5056 1028.43 67.8256 1027.43 67.8256C1026.44 67.8256 1025.41 67.509 1024.61 66.9155L1023.42 68.5174ZM1031 68.5174L1032.1 70.1856L1096.27 27.7437L1095.17 26.0756L1094.06 24.4075L1029.9 66.8493L1031 68.5174ZM1095.17 26.0756L1096.36 27.6775C1098.25 26.2707 1100.69 25.75 1102.75 25.75V23.75V21.75C1100.14 21.75 1096.75 22.3921 1093.97 24.4737L1095.17 26.0756ZM1102.75 23.75V25.75H1129.58V23.75V21.75H1102.75V23.75ZM1129.58 23.75V25.75C1131.12 25.75 1132.83 26.8826 1132.83 28.9826H1134.83H1136.83C1136.83 24.1058 1132.71 21.75 1129.58 21.75V23.75ZM1134.83 28.9826H1132.83V116.192H1134.83H1136.83V28.9826H1134.83ZM1134.83 116.192H1132.83C1132.83 117.707 1131.71 119.424 1129.58 119.424V121.424V123.424C1134.46 123.424 1136.83 119.328 1136.83 116.192H1134.83ZM1129.58 121.424V119.424H1104.5V121.424V123.424H1129.58V121.424ZM1104.5 121.424V119.424C1101.96 119.424 1100.67 117.851 1100.67 116.192H1098.67H1096.67C1096.67 120.346 1100.04 123.424 1104.5 123.424V121.424ZM1098.67 116.192H1100.67V64.4477H1098.67H1096.67V116.192H1098.67ZM1098.67 64.4477H1100.67C1100.67 62.5826 1100.22 60.3471 1098.12 59.4756C1097.18 59.0844 1096.19 59.1182 1095.31 59.3008C1094.42 59.4852 1093.48 59.8547 1092.52 60.332L1093.42 62.1221L1094.31 63.9121C1095.1 63.5174 1095.7 63.3055 1096.12 63.2173C1096.55 63.1274 1096.65 63.1976 1096.59 63.1697C1096.46 63.1165 1096.45 63.0241 1096.5 63.1457C1096.57 63.3204 1096.67 63.7128 1096.67 64.4477H1098.67ZM1093.42 62.1221L1092.28 60.4759L1046.78 91.8713L1047.92 93.5174L1049.05 95.1636L1094.55 63.7682L1093.42 62.1221ZM768.5 50.4942V48.4942C768.196 48.4942 767.648 48.4793 767.298 48.4877C766.868 48.498 766.354 48.5394 765.803 48.7105C764.638 49.072 763.745 49.8707 762.852 50.9925L764.417 52.2384L765.981 53.4842C766.671 52.6177 766.945 52.5443 766.989 52.5308C767.042 52.5144 767.142 52.4926 767.394 52.4865C767.727 52.4785 767.929 52.4942 768.5 52.4942V50.4942ZM764.417 52.2384L762.83 51.0209L747.663 70.7884L749.25 72.0058L750.837 73.2233L766.004 53.4558L764.417 52.2384ZM749.25 72.0058L747.624 70.8408C746.8 71.9904 746.293 73.5111 747.163 74.8896C747.874 76.0182 749.106 76.3314 749.833 76.3314V74.3314V72.3314C749.983 72.3314 750.077 72.3603 750.149 72.3929C750.228 72.429 750.402 72.5282 750.546 72.7558C750.712 73.0198 750.729 73.2856 750.705 73.4307C750.689 73.531 750.674 73.4525 750.876 73.1708L749.25 72.0058ZM749.833 74.3314V76.3314H859.5V74.3314V72.3314H749.833V74.3314ZM859.5 74.3314V76.3314C861.513 76.3314 863.297 75.8263 864.276 74.2001C864.704 73.4885 864.863 72.7307 864.933 72.1002C865.002 71.4777 865 70.8144 865 70.2616H863H861C861 70.8717 860.998 71.2985 860.958 71.6571C860.919 72.0077 860.858 72.1219 860.849 72.1371C860.849 72.1373 860.855 72.1289 860.862 72.1234C860.867 72.1193 860.845 72.1394 860.771 72.1695C860.605 72.2371 860.231 72.3314 859.5 72.3314V74.3314ZM863 70.2616H865V56.3081H863H861V70.2616H863ZM863 56.3081H865C865 55.3151 865.001 54.3603 864.94 53.5346C864.879 52.7206 864.748 51.835 864.377 51.0346C863.97 50.1546 863.308 49.4508 862.362 49.0143C861.494 48.614 860.507 48.4942 859.5 48.4942V50.4942V52.4942C860.243 52.4942 860.569 52.5924 860.686 52.6463C860.724 52.664 860.718 52.6506 860.748 52.7154C860.815 52.8597 860.902 53.1733 860.951 53.831C860.999 54.4769 861 55.2663 861 56.3081H863ZM859.5 50.4942V48.4942H767.917V50.4942V52.4942H859.5V50.4942ZM767.917 50.4942V52.4942H768.5V50.4942V48.4942H767.917V50.4942ZM704.333 123.169V121.169H671.667V123.169V125.169H704.333V123.169ZM671.667 123.169V121.169C671.336 121.169 670.959 121.031 670.597 120.755C670.422 120.621 670.278 120.476 670.174 120.345C670.062 120.204 670.035 120.13 670.044 120.153L668.167 120.843L666.289 121.533C666.619 122.431 667.339 123.301 668.174 123.937C669.041 124.597 670.247 125.169 671.667 125.169V123.169ZM668.167 120.843H670.167V119.099H668.167H666.167V120.843H668.167ZM668.167 119.099L669.756 120.313L738.589 30.1966L737 28.9826L735.411 27.7685L666.577 117.885L668.167 119.099ZM737 28.9826L738.512 30.2916C739.995 28.5788 741.468 27.4942 742.833 27.4942V25.4942V23.4942C739.532 23.4942 737.005 25.9212 735.488 27.6735L737 28.9826ZM742.833 25.4942V27.4942H891V25.4942V23.4942H742.833V25.4942ZM891 25.4942V27.4942C892.024 27.4942 892.938 27.9888 893.652 28.9049C894.384 29.8427 894.833 31.1481 894.833 32.4709H896.833H898.833C898.833 30.3054 898.116 28.1224 896.806 26.444C895.479 24.7437 893.476 23.4942 891 23.4942V25.4942ZM896.833 32.4709H894.833V117.936H896.833H898.833V32.4709H896.833ZM896.833 117.936H894.833C894.833 119.451 893.706 121.169 891.583 121.169V123.169V125.169C896.46 125.169 898.833 121.072 898.833 117.936H896.833ZM891.583 123.169V121.169H866.5V123.169V125.169H891.583V123.169ZM866.5 123.169V121.169C864.964 121.169 863.25 120.036 863.25 117.936H861.25H859.25C859.25 122.813 863.369 125.169 866.5 125.169V123.169ZM861.25 117.936H863.25V105.145H861.25H859.25V117.936H861.25ZM861.25 105.145H863.25C863.25 104.313 863.252 103.506 863.185 102.838C863.12 102.182 862.963 101.334 862.411 100.6C861.807 99.7977 860.975 99.4385 860.206 99.2682C859.484 99.1084 858.639 99.0756 857.75 99.0756V101.076V103.076C858.611 103.076 859.079 103.115 859.341 103.174C859.557 103.221 859.38 103.226 859.214 103.005C859.099 102.852 859.162 102.804 859.205 103.237C859.248 103.66 859.25 104.234 859.25 105.145H861.25ZM857.75 101.076V99.0756H727.667V101.076V103.076H857.75V101.076ZM727.667 101.076V99.0756C724.275 99.0756 722.003 101.585 720.754 103.452L722.417 104.564L724.079 105.676C725.164 104.054 726.392 103.076 727.667 103.076V101.076ZM722.417 104.564L720.754 103.452L711.421 117.405L713.083 118.517L714.746 119.629L724.079 105.676L722.417 104.564ZM713.083 118.517L711.621 117.153C709.632 119.285 706.968 121.169 704.333 121.169V123.169V125.169C708.699 125.169 712.368 122.215 714.546 119.882L713.083 118.517ZM638.417 122.587V124.587C642.663 124.587 646.29 122.353 648.751 119.156L647.167 117.936L645.582 116.716C643.71 119.147 641.171 120.587 638.417 120.587V122.587ZM647.167 117.936L648.752 119.155L715.835 31.9462L714.25 30.7267L712.665 29.5073L645.581 116.717L647.167 117.936ZM714.25 30.7267L715.912 31.8387C717.299 29.7663 717.763 27.5833 716.962 25.7216C716.156 23.8469 714.323 22.9128 712.5 22.9128V24.9128V26.9128C713.011 26.9128 713.219 27.1415 713.288 27.3017C713.362 27.4748 713.535 28.1988 712.588 29.6148L714.25 30.7267ZM712.5 24.9128V22.9128H698.5V24.9128V26.9128H712.5V24.9128ZM698.5 24.9128V22.9128C696.81 22.9128 695.301 23.5736 694.1 24.3729C692.891 25.1775 691.871 26.2028 691.111 27.1446L692.667 28.4012L694.223 29.6577C694.795 28.9484 695.525 28.2294 696.317 27.7026C697.116 27.1706 697.857 26.9128 698.5 26.9128V24.9128ZM692.667 28.4012L691.077 27.1871L622.244 117.303L623.833 118.517L625.423 119.731L694.256 29.6152L692.667 28.4012ZM623.833 118.517L622.248 117.298C621.342 118.476 620.855 119.855 621.131 121.27C621.403 122.672 622.341 123.684 623.399 124.309L624.417 122.587L625.434 120.865C625.258 120.761 625.16 120.665 625.11 120.603C625.065 120.545 625.059 120.514 625.057 120.506C625.056 120.5 625.046 120.451 625.079 120.338C625.115 120.218 625.205 120.015 625.418 119.737L623.833 118.517ZM624.417 122.587V124.587H638.417V122.587V120.587H624.417V122.587ZM591.75 122.587V124.587C596.061 124.587 599.311 122.286 601.995 119.264L600.5 117.936L599.005 116.608C596.689 119.214 594.439 120.587 591.75 120.587V122.587ZM600.5 117.936L602.085 119.155L669.169 31.9462L667.583 30.7267L665.998 29.5073L598.915 116.717L600.5 117.936ZM667.583 30.7267L669.246 31.8387C670.632 29.7663 671.096 27.5833 670.296 25.7216C669.49 23.8469 667.656 22.9128 665.833 22.9128V24.9128V26.9128C666.344 26.9128 666.552 27.1415 666.621 27.3017C666.695 27.4749 666.868 28.1988 665.921 29.6148L667.583 30.7267ZM665.833 24.9128V22.9128H647.167V24.9128V26.9128H665.833V24.9128ZM647.167 24.9128V22.9128C645.489 22.9128 643.945 23.564 642.72 24.3625C641.486 25.1671 640.428 26.2165 639.7 27.247L641.333 28.4012L642.967 29.5553C643.405 28.9346 644.097 28.2398 644.905 27.7131C645.722 27.1802 646.511 26.9128 647.167 26.9128V24.9128ZM641.333 28.4012L639.744 27.1871L570.911 117.303L572.5 118.517L574.089 119.731L642.923 29.6152L641.333 28.4012ZM572.5 118.517L570.84 117.402C569.774 118.989 569.618 120.546 570.148 121.9C570.596 123.046 571.494 123.827 571.671 124.004L573.083 122.587L574.495 121.171C574.286 120.962 574.187 120.876 574.059 120.725C573.949 120.595 573.897 120.503 573.873 120.443C573.856 120.4 573.847 120.361 573.857 120.288C573.869 120.205 573.92 119.991 574.16 119.633L572.5 118.517ZM573.083 122.587V124.587H591.75V122.587V120.587H573.083V122.587ZM515.333 123.75V121.75C514.907 121.75 514.64 121.665 514.475 121.583C514.308 121.501 514.183 121.392 514.085 121.269C513.983 121.14 513.91 120.996 513.866 120.871C513.811 120.717 513.833 120.695 513.833 120.843H511.833H509.833C509.833 121.603 510.164 122.765 510.956 123.76C511.841 124.871 513.282 125.75 515.333 125.75V123.75ZM511.833 120.843H513.833V119.099H511.833H509.833V120.843H511.833ZM511.833 119.099L513.423 120.313L582.256 30.1966L580.667 28.9826L579.077 27.7685L510.244 117.885L511.833 119.099ZM580.667 28.9826L582.079 30.3991C582.982 29.4987 583.728 28.7634 584.5 28.2305C585.238 27.7213 585.867 27.4942 586.5 27.4942V25.4942V23.4942C584.799 23.4942 583.387 24.1391 582.229 24.9381C581.105 25.7134 580.101 26.7222 579.255 27.566L580.667 28.9826ZM586.5 25.4942V27.4942H613.917V25.4942V23.4942H586.5V25.4942ZM613.917 25.4942V27.4942C614.597 27.4942 614.931 27.6112 615.053 27.6763C615.104 27.7037 615.103 27.7138 615.085 27.6916C615.077 27.6819 615.069 27.6705 615.063 27.6592C615.058 27.648 615.056 27.6419 615.057 27.6442C615.061 27.6587 615.107 27.859 614.959 28.3381C614.814 28.8075 614.517 29.4301 614.004 30.1962L615.667 31.3081L617.329 32.4201C617.983 31.442 618.488 30.4658 618.781 29.518C619.07 28.58 619.189 27.5448 618.902 26.5419C618.237 24.2212 615.989 23.4942 613.917 23.4942V25.4942ZM615.667 31.3081L614.081 30.0887L546.998 117.298L548.583 118.517L550.169 119.737L617.252 32.5275L615.667 31.3081ZM548.583 118.517L547.021 117.269C544.577 120.328 542.423 121.75 539.833 121.75V123.75V125.75C544.243 125.75 547.423 123.172 550.146 119.766L548.583 118.517ZM539.833 123.75V121.75H514.167V123.75V125.75H539.833V123.75ZM514.167 123.75V125.75H515.333V123.75V121.75H514.167V123.75ZM452 123.75V121.75C452.013 121.75 451.949 121.755 451.795 121.662C451.638 121.568 451.452 121.411 451.265 121.197C451.08 120.985 450.935 120.766 450.846 120.6C450.825 120.561 450.809 120.529 450.798 120.504C450.787 120.479 450.783 120.467 450.783 120.468C450.784 120.469 450.786 120.475 450.789 120.486C450.792 120.497 450.797 120.515 450.803 120.541C450.812 120.581 450.833 120.69 450.833 120.843H448.833H446.833C446.833 121.253 446.943 121.605 447.012 121.802C447.095 122.037 447.202 122.268 447.318 122.485C447.55 122.918 447.868 123.39 448.256 123.832C448.961 124.637 450.257 125.75 452 125.75V123.75ZM448.833 120.843H450.833V119.099H448.833H446.833V120.843H448.833ZM448.833 119.099L450.423 120.313L519.256 30.1966L517.667 28.9826L516.077 27.7685L447.244 117.885L448.833 119.099ZM517.667 28.9826L519.079 30.3991C519.982 29.4987 520.728 28.7634 521.5 28.2305C522.238 27.7213 522.867 27.4942 523.5 27.4942V25.4942V23.4942C521.799 23.4942 520.387 24.1391 519.229 24.9381C518.105 25.7134 517.101 26.7222 516.255 27.566L517.667 28.9826ZM523.5 25.4942V27.4942H560.25V25.4942V23.4942H523.5V25.4942ZM560.25 25.4942V27.4942C560.93 27.4942 561.264 27.6112 561.386 27.6763C561.437 27.7037 561.437 27.7138 561.418 27.6916C561.41 27.6819 561.403 27.6705 561.397 27.6592C561.391 27.648 561.389 27.6419 561.39 27.6442C561.394 27.6587 561.44 27.859 561.292 28.3381C561.147 28.8075 560.85 29.4301 560.338 30.1962L562 31.3081L563.662 32.4201C564.317 31.442 564.822 30.4658 565.114 29.518C565.404 28.58 565.523 27.5448 565.235 26.5419C564.57 24.2212 562.322 23.4942 560.25 23.4942V25.4942ZM562 31.3081L560.415 30.0887L493.331 117.298L494.917 118.517L496.502 119.737L563.585 32.5275L562 31.3081ZM494.917 118.517L493.341 117.286C491.946 119.071 490.809 120.164 489.722 120.824C488.686 121.453 487.595 121.75 486.167 121.75V123.75V125.75C488.238 125.75 490.064 125.297 491.799 124.243C493.483 123.22 494.97 121.697 496.493 119.749L494.917 118.517ZM486.167 123.75V121.75H451.167V123.75V125.75H486.167V123.75ZM451.167 123.75V125.75H452.333V123.75V121.75H451.167V123.75ZM452.333 123.75V121.75H452V123.75V125.75H452.333V123.75ZM348.5 123.75V121.75C348.501 121.75 348.399 121.747 348.184 121.628C347.974 121.512 347.737 121.329 347.506 121.098C347.275 120.868 347.095 120.636 346.986 120.466C346.931 120.38 346.913 120.339 346.916 120.345C346.918 120.349 346.933 120.385 346.951 120.449C346.966 120.504 347 120.645 347 120.843H345H343C343 121.329 343.158 121.731 343.241 121.925C343.346 122.17 343.479 122.405 343.615 122.619C343.889 123.048 344.256 123.507 344.682 123.931C345.449 124.696 346.813 125.75 348.5 125.75V123.75ZM345 120.843H347V119.099H345H343V120.843H345ZM345 119.099L346.589 120.313L415.423 30.1966L413.833 28.9826L412.244 27.7685L343.411 117.885L345 119.099ZM413.833 28.9826L415.245 30.3991C416.149 29.4987 416.895 28.7634 417.667 28.2305C418.405 27.7213 419.034 27.4942 419.667 27.4942V25.4942V23.4942C417.966 23.4942 416.553 24.1391 415.395 24.9381C414.272 25.7134 413.268 26.7222 412.421 27.566L413.833 28.9826ZM419.667 25.4942V27.4942H501.333V25.4942V23.4942H419.667V25.4942ZM501.333 25.4942V27.4942C502.013 27.4942 502.348 27.6112 502.469 27.6763C502.521 27.7037 502.52 27.7138 502.502 27.6916C502.494 27.6819 502.486 27.6705 502.48 27.6592C502.474 27.648 502.473 27.6419 502.473 27.6442C502.477 27.6587 502.523 27.859 502.375 28.3381C502.231 28.8075 501.933 29.4301 501.421 30.1962L503.083 31.3081L504.746 32.4201C505.4 31.442 505.905 30.4658 506.197 29.518C506.487 28.58 506.606 27.5448 506.318 26.5419C505.653 24.2212 503.406 23.4942 501.333 23.4942V25.4942ZM503.083 31.3081L501.498 30.0887L434.415 117.298L436 118.517L437.585 119.737L504.669 32.5275L503.083 31.3081ZM436 118.517L434.418 117.294C432.085 120.31 429.853 121.75 427.25 121.75V123.75V125.75C431.647 125.75 434.915 123.19 437.582 119.741L436 118.517ZM427.25 123.75V121.75H347.333V123.75V125.75H427.25V123.75ZM347.333 123.75V125.75H348.5V123.75V121.75H347.333V123.75Z" fill="white" mask="url(#path-2-inside-1_838_3607)"/>
<path d="M540.308 144.75C552.95 144.75 563.262 154.026 563.262 165.5C563.262 176.974 552.95 186.25 540.308 186.25C527.665 186.25 517.353 176.974 517.353 165.5C517.353 154.026 527.638 144.75 540.308 144.75ZM476.3 145.97V145.72H496.624C499.953 145.72 503.858 146.506 506.938 148.859C510.029 151.221 512.255 155.137 512.255 161.321C512.255 167.534 508.108 170.804 504.425 172.492L514.411 184.838L514.422 184.848C514.499 184.917 514.524 185.027 514.487 185.123C514.45 185.219 514.357 185.283 514.254 185.283H500.286C500.211 185.283 500.139 185.249 500.092 185.19L491.297 174.321C489.9 174.297 488.591 174.258 487.623 174.224C487.126 174.206 486.718 174.19 486.435 174.178C486.367 174.175 486.307 174.172 486.254 174.17V185.01C486.254 185.148 486.142 185.26 486.004 185.26H473.579C473.441 185.26 473.329 185.148 473.329 185.01V149.253C473.329 147.527 474.052 146.623 474.811 146.166C475.181 145.942 475.55 145.832 475.825 145.776C475.963 145.749 476.079 145.735 476.161 145.728C476.202 145.724 476.235 145.722 476.259 145.721C476.271 145.72 476.28 145.72 476.287 145.72H476.299C476.299 145.72 476.3 145.72 476.3 145.97ZM687.025 145.741C691.711 145.741 695.566 146.945 698.248 148.148C699.589 148.75 700.639 149.353 701.354 149.806C701.712 150.032 701.986 150.22 702.172 150.354C702.264 150.42 702.335 150.473 702.383 150.509C702.407 150.527 702.425 150.541 702.438 150.551C702.444 150.556 702.449 150.56 702.452 150.562C702.454 150.564 702.455 150.565 702.456 150.565L702.457 150.566C702.511 150.61 702.546 150.674 702.551 150.743C702.556 150.813 702.532 150.882 702.484 150.933L696.756 157.097C696.675 157.183 696.545 157.201 696.443 157.14H696.442C696.442 157.139 696.441 157.138 696.44 157.138C696.438 157.136 696.435 157.134 696.431 157.132C696.422 157.127 696.408 157.119 696.391 157.108C696.355 157.087 696.3 157.056 696.229 157.017C696.088 156.937 695.879 156.822 695.612 156.686C695.078 156.412 694.31 156.047 693.38 155.687C691.516 154.964 689.013 154.26 686.43 154.318H686.429C684.431 154.354 683.052 154.573 682.177 155.042C681.746 155.273 681.444 155.56 681.246 155.914C681.048 156.27 680.945 156.709 680.945 157.257C680.945 157.732 681.212 158.195 681.756 158.65C682.299 159.105 683.09 159.526 684.063 159.911C686.008 160.681 688.617 161.286 691.255 161.758H691.256C692.953 162.069 696.399 163.065 699.428 164.987C702.455 166.909 705.115 169.792 705.115 173.884C705.115 177.95 703.168 180.817 699.893 182.651C696.634 184.476 692.066 185.281 686.79 185.281C680.703 185.281 676.067 183.698 672.95 182.112C671.393 181.32 670.215 180.526 669.425 179.93C669.03 179.631 668.732 179.383 668.531 179.207C668.431 179.119 668.356 179.05 668.305 179.002C668.279 178.978 668.259 178.959 668.246 178.946C668.24 178.94 668.234 178.935 668.23 178.932L668.226 178.927V178.926H668.225C668.131 178.832 668.127 178.681 668.215 178.582L673.891 172.206L673.956 172.153C674.029 172.113 674.119 172.111 674.195 172.151H674.196C674.197 172.152 674.198 172.153 674.2 172.154C674.204 172.156 674.209 172.159 674.216 172.162C674.229 172.169 674.25 172.18 674.276 172.194C674.33 172.222 674.409 172.264 674.51 172.316C674.712 172.422 675.004 172.573 675.361 172.756C676.077 173.121 677.055 173.612 678.108 174.112C679.162 174.613 680.288 175.123 681.299 175.527C682.317 175.935 683.196 176.227 683.764 176.305H683.765C685.719 176.577 688.038 176.885 689.928 176.729C690.873 176.65 691.685 176.457 692.284 176.104C692.872 175.758 693.258 175.257 693.37 174.53C693.452 173.993 693.337 173.54 693.029 173.126C692.714 172.702 692.186 172.307 691.422 171.922C689.891 171.151 687.505 170.467 684.27 169.639L684.268 169.638C678.17 168.034 674.45 166.724 672.265 164.875C670.046 162.997 669.433 160.59 669.433 156.926C669.433 153.178 671.515 150.371 674.747 148.514C677.972 146.661 682.355 145.741 687.025 145.741ZM347.971 145.97V145.72H368.295C371.624 145.72 375.529 146.506 378.608 148.859C381.699 151.221 383.926 155.137 383.926 161.321C383.926 166.512 381.042 169.665 377.938 171.54C374.843 173.41 371.51 174.025 370.525 174.157H370.523C368.919 174.361 365.696 174.36 362.893 174.31C361.487 174.284 360.18 174.247 359.225 174.216C358.747 174.2 358.356 174.186 358.086 174.176C358.026 174.174 357.972 174.171 357.925 174.169V185.01C357.925 185.148 357.813 185.26 357.675 185.26H345.25C345.112 185.26 345 185.148 345 185.01V149.253C345 147.527 345.723 146.623 346.481 146.166C346.852 145.942 347.221 145.832 347.496 145.776C347.634 145.749 347.75 145.735 347.832 145.728C347.873 145.724 347.906 145.722 347.93 145.721C347.941 145.72 347.951 145.72 347.958 145.72H347.97C347.97 145.72 347.971 145.72 347.971 145.97ZM424.796 145.72C424.934 145.72 425.046 145.832 425.046 145.97V155.346C425.046 155.484 424.934 155.596 424.796 155.596H400.327V161.071H422.468C422.606 161.071 422.718 161.183 422.718 161.321V169.611C422.718 169.749 422.606 169.861 422.468 169.861H400.327V175.384H424.796C424.934 175.384 425.046 175.496 425.046 175.634V185.01C425.046 185.148 424.934 185.26 424.796 185.26H389.719C389.581 185.26 389.469 185.148 389.469 185.01V145.97C389.469 145.832 389.581 145.72 389.719 145.72H424.796ZM468.112 145.72C468.25 145.72 468.362 145.832 468.362 145.97V155.346C468.362 155.484 468.25 155.596 468.112 155.596H455.283V185.01C455.283 185.148 455.171 185.26 455.033 185.26H442.53C442.392 185.26 442.28 185.148 442.28 185.01V155.596H429.451C429.313 155.596 429.201 155.484 429.201 155.346V145.97C429.201 145.832 429.313 145.72 429.451 145.72H468.112ZM582.532 145.727C582.59 145.74 582.641 145.774 582.677 145.823L599.592 169.331V145.97C599.592 145.832 599.704 145.72 599.842 145.72H611.325C611.463 145.72 611.575 145.832 611.575 145.97V185.01C611.575 185.148 611.463 185.26 611.325 185.26H598.874C598.794 185.26 598.719 185.22 598.672 185.155L581.887 161.836V185.01C581.887 185.148 581.775 185.26 581.637 185.26H570.153C570.015 185.26 569.903 185.148 569.903 185.01V145.97C569.903 145.832 570.015 145.72 570.153 145.72H582.474L582.532 145.727ZM646.244 145.72C646.341 145.72 646.429 145.776 646.471 145.863L664.912 184.902C664.949 184.98 664.942 185.071 664.896 185.144C664.851 185.216 664.771 185.26 664.686 185.26H653.568C653.472 185.26 653.384 185.203 653.343 185.116L650.036 178.127H631.337L628.029 185.116C627.988 185.204 627.9 185.26 627.804 185.26H616.687C616.601 185.26 616.521 185.216 616.476 185.144C616.43 185.071 616.424 184.98 616.461 184.902L634.901 145.863C634.943 145.776 635.031 145.72 635.128 145.72H646.244ZM540.308 155.193C533.96 155.193 528.865 159.828 528.865 165.5C528.865 171.172 533.96 175.807 540.308 175.807C546.655 175.807 551.75 171.172 551.75 165.5C551.75 159.828 546.655 155.193 540.308 155.193ZM635.365 169.645H646.033L640.698 158.34L635.365 169.645ZM493.326 154.969C491.622 154.779 489.913 154.834 488.627 154.938C487.985 154.989 487.449 155.053 487.075 155.104C486.921 155.124 486.794 155.143 486.698 155.157V164.854C486.793 164.865 486.917 164.88 487.067 164.896C487.442 164.934 487.978 164.98 488.621 165.017C489.908 165.09 491.621 165.119 493.329 164.948C495.043 164.777 496.728 164.406 497.978 163.693C499.215 162.988 500.01 161.96 500.01 160.447C500.01 158.551 499.192 157.291 497.961 156.446C496.715 155.592 495.036 155.159 493.326 154.969ZM365.05 154.945C363.345 154.756 361.636 154.811 360.35 154.914C359.708 154.966 359.173 155.029 358.799 155.079C358.644 155.1 358.517 155.119 358.422 155.134V164.831C358.517 164.842 358.641 164.856 358.791 164.871C359.166 164.909 359.701 164.957 360.344 164.993C361.631 165.066 363.344 165.096 365.053 164.925C366.766 164.753 368.452 164.383 369.701 163.67C370.938 162.964 371.733 161.936 371.733 160.424C371.733 158.528 370.915 157.266 369.684 156.422C368.438 155.568 366.759 155.135 365.05 154.945Z" fill="#00AF9B"/>
<path d="M851.424 145.608C854.216 145.394 856.913 145.485 857.915 145.485C868.034 145.486 875.136 151.687 875.136 158.506C875.136 161.037 874.217 163.019 872.431 164.533C871.044 165.708 869.144 166.592 866.771 167.244H867.278L867.331 167.25C867.348 167.254 867.365 167.259 867.381 167.267L867.471 167.308L867.513 167.331C867.551 167.358 867.581 167.396 867.6 167.44L873.316 181.391C874.299 183.787 872.323 186.25 869.619 186.25C867.997 186.25 866.504 185.302 865.922 183.899V183.898L859.554 168.45C858.594 168.53 857.638 168.64 856.573 168.679C853.605 168.795 851.244 168.724 849.296 168.469V182.624C849.296 184.616 847.494 186.209 845.354 186.209H844.725C842.585 186.209 840.783 184.616 840.783 182.624V154.348L840.807 153.91C840.875 152.898 841.052 151.941 841.492 150.979C841.995 149.881 842.831 148.796 844.201 147.62C844.955 146.972 846.075 146.525 847.333 146.213C848.597 145.899 850.027 145.716 851.424 145.608ZM765.496 145.076L765.495 145.077C768.151 145.077 770.517 146.853 770.517 149.353C770.517 151.798 768.327 153.732 765.703 153.789C765.694 153.79 765.684 153.792 765.675 153.792H765.585C765.583 153.792 765.58 153.791 765.577 153.791L752.149 153.672V161.223H763.964C766.463 161.223 768.535 163.06 768.535 165.377C768.535 167.694 766.463 169.531 763.964 169.531H752.149V181.198C752.149 184.003 749.671 186.207 746.632 186.207C743.591 186.207 741.115 183.961 741.115 181.198V149.922C741.115 148.62 741.342 147.376 742.15 146.453C742.964 145.525 744.319 144.975 746.45 144.954H746.589L765.496 145.076ZM927.735 144.914C929.984 144.914 932.589 145.043 934.633 146.197C935.662 146.778 936.548 147.618 937.174 148.823C937.799 150.026 938.159 151.581 938.159 153.583V182.835C938.159 182.836 938.158 182.837 938.158 182.838C938.158 182.84 938.158 182.845 938.158 182.849C938.158 182.857 938.157 182.867 938.156 182.881C938.154 182.908 938.149 182.947 938.143 182.994C938.129 183.089 938.104 183.222 938.057 183.38C937.962 183.696 937.78 184.114 937.431 184.531C936.725 185.374 935.375 186.167 932.822 186.167C931.398 186.167 930.369 185.866 929.695 185.264C929.016 184.656 928.745 183.782 928.745 182.744V156.634C928.745 156.095 928.628 155.605 928.372 155.256C928.13 154.926 927.746 154.697 927.142 154.688C927.138 154.692 927.134 154.696 927.129 154.7C927.092 154.737 927.041 154.801 926.977 154.901C926.849 155.101 926.695 155.403 926.517 155.8C926.161 156.592 925.725 157.73 925.239 159.103C924.268 161.846 923.104 165.507 921.981 169.172C920.859 172.836 919.781 176.501 918.982 179.249C918.583 180.623 918.255 181.768 918.025 182.569C917.911 182.97 917.821 183.285 917.76 183.5C917.729 183.607 917.706 183.69 917.69 183.745C917.683 183.773 917.677 183.794 917.673 183.808C917.672 183.812 917.67 183.816 917.669 183.819V183.821C917.669 183.822 917.668 183.823 917.668 183.824C917.667 183.826 917.667 183.829 917.666 183.832C917.664 183.838 917.662 183.847 917.659 183.856C917.653 183.877 917.644 183.905 917.631 183.938C917.605 184.006 917.566 184.099 917.505 184.208C917.383 184.428 917.176 184.713 916.839 184.999C916.161 185.573 914.977 186.125 912.93 186.167H912.742C910.716 186.146 909.531 185.604 908.848 185.036C908.508 184.754 908.298 184.469 908.172 184.251C908.109 184.142 908.068 184.05 908.041 183.983C908.028 183.95 908.018 183.922 908.012 183.902C908.009 183.892 908.006 183.884 908.004 183.878C908.003 183.875 908.003 183.871 908.002 183.869L908.001 183.867V183.864L907.996 183.849C907.992 183.835 907.986 183.814 907.979 183.786C907.963 183.731 907.939 183.648 907.908 183.541C907.847 183.326 907.757 183.011 907.642 182.61C907.411 181.809 907.081 180.664 906.681 179.29C905.879 176.542 904.796 172.877 903.671 169.213C902.546 165.548 901.379 161.887 900.41 159.143C899.925 157.77 899.491 156.632 899.139 155.84C898.962 155.442 898.809 155.14 898.684 154.94C898.62 154.84 898.57 154.775 898.533 154.738C898.529 154.735 898.525 154.732 898.522 154.729C897.945 154.74 897.561 154.967 897.312 155.299C897.051 155.649 896.923 156.139 896.923 156.674V182.785C896.923 183.823 896.653 184.697 895.974 185.305C895.3 185.907 894.271 186.207 892.847 186.207C890.294 186.207 888.943 185.415 888.237 184.572C887.888 184.155 887.707 183.737 887.612 183.421C887.565 183.263 887.54 183.13 887.526 183.035C887.52 182.988 887.515 182.949 887.513 182.922C887.512 182.908 887.511 182.897 887.511 182.889C887.511 182.885 887.51 182.881 887.51 182.879V153.624C887.51 151.622 887.869 150.067 888.494 148.864C889.12 147.659 890.007 146.818 891.036 146.237C893.08 145.083 895.685 144.955 897.934 144.955C901.242 144.955 903.204 146.794 904.325 148.612C904.885 149.519 905.238 150.424 905.452 151.101C905.559 151.439 905.632 151.723 905.678 151.922C905.701 152.021 905.717 152.1 905.728 152.154C905.733 152.181 905.737 152.202 905.739 152.217C905.74 152.22 905.74 152.223 905.74 152.226L912.834 175.384L919.93 152.217C919.932 152.202 919.936 152.181 919.941 152.154C919.952 152.1 919.968 152.021 919.991 151.922C920.037 151.723 920.11 151.439 920.217 151.101C920.431 150.424 920.784 149.519 921.344 148.612C922.449 146.82 924.371 145.009 927.595 144.958C927.635 144.931 927.683 144.914 927.735 144.914ZM1350.05 144.914C1352.29 144.914 1354.9 145.043 1356.94 146.197C1357.97 146.778 1358.86 147.618 1359.48 148.823C1360.11 150.026 1360.47 151.581 1360.47 153.583V182.835C1360.47 182.836 1360.47 182.837 1360.47 182.838C1360.47 182.84 1360.47 182.845 1360.47 182.849C1360.47 182.857 1360.47 182.867 1360.47 182.881C1360.46 182.908 1360.46 182.947 1360.45 182.994C1360.44 183.089 1360.41 183.222 1360.37 183.38C1360.27 183.696 1360.09 184.114 1359.74 184.531C1359.04 185.374 1357.69 186.167 1355.13 186.167C1353.71 186.167 1352.68 185.866 1352.01 185.264C1351.33 184.656 1351.06 183.782 1351.06 182.744V156.634C1351.06 156.095 1350.94 155.605 1350.68 155.256C1350.44 154.926 1350.06 154.697 1349.45 154.688C1349.45 154.692 1349.44 154.696 1349.44 154.7C1349.4 154.737 1349.35 154.801 1349.29 154.901C1349.16 155.101 1349.01 155.403 1348.83 155.8C1348.47 156.592 1348.04 157.73 1347.55 159.103C1346.58 161.846 1345.41 165.507 1344.29 169.172C1343.17 172.836 1342.09 176.501 1341.29 179.249C1340.89 180.623 1340.57 181.768 1340.34 182.569C1340.22 182.97 1340.13 183.285 1340.07 183.5C1340.04 183.607 1340.02 183.69 1340 183.745C1339.99 183.773 1339.99 183.794 1339.98 183.808C1339.98 183.812 1339.98 183.816 1339.98 183.819V183.821C1339.98 183.822 1339.98 183.823 1339.98 183.824C1339.98 183.826 1339.98 183.829 1339.98 183.832C1339.97 183.838 1339.97 183.847 1339.97 183.856C1339.96 183.877 1339.95 183.905 1339.94 183.938C1339.92 184.006 1339.88 184.099 1339.82 184.208C1339.69 184.428 1339.49 184.713 1339.15 184.999C1338.47 185.573 1337.29 186.125 1335.24 186.167H1335.05C1333.03 186.146 1331.84 185.604 1331.16 185.036C1330.82 184.754 1330.61 184.469 1330.48 184.251C1330.42 184.142 1330.38 184.05 1330.35 183.983C1330.34 183.95 1330.33 183.922 1330.32 183.902C1330.32 183.892 1330.32 183.884 1330.31 183.878C1330.31 183.875 1330.31 183.871 1330.31 183.869L1330.31 183.867V183.864L1330.31 183.849C1330.3 183.835 1330.3 183.814 1330.29 183.786C1330.27 183.731 1330.25 183.648 1330.22 183.541C1330.16 183.326 1330.07 183.011 1329.95 182.61C1329.72 181.809 1329.39 180.664 1328.99 179.29C1328.19 176.542 1327.11 172.877 1325.98 169.213C1324.86 165.548 1323.69 161.887 1322.72 159.143C1322.24 157.77 1321.8 156.632 1321.45 155.84C1321.27 155.442 1321.12 155.14 1320.99 154.94C1320.93 154.84 1320.88 154.775 1320.84 154.738C1320.84 154.735 1320.84 154.732 1320.83 154.729C1320.26 154.74 1319.87 154.967 1319.62 155.299C1319.36 155.649 1319.23 156.139 1319.23 156.674V182.785C1319.23 183.823 1318.96 184.697 1318.28 185.305C1317.61 185.907 1316.58 186.207 1315.16 186.207C1312.6 186.207 1311.25 185.415 1310.55 184.572C1310.2 184.155 1310.02 183.737 1309.92 183.421C1309.88 183.263 1309.85 183.13 1309.84 183.035C1309.83 182.988 1309.83 182.949 1309.82 182.922C1309.82 182.908 1309.82 182.897 1309.82 182.889C1309.82 182.885 1309.82 182.881 1309.82 182.879V153.624C1309.82 151.622 1310.18 150.067 1310.8 148.864C1311.43 147.659 1312.32 146.818 1313.35 146.237C1315.39 145.083 1318 144.955 1320.24 144.955C1323.55 144.955 1325.51 146.794 1326.64 148.612C1327.2 149.519 1327.55 150.424 1327.76 151.101C1327.87 151.439 1327.94 151.723 1327.99 151.922C1328.01 152.021 1328.03 152.1 1328.04 152.154C1328.04 152.181 1328.05 152.202 1328.05 152.217C1328.05 152.22 1328.05 152.223 1328.05 152.226L1335.14 175.384L1342.24 152.217C1342.24 152.202 1342.25 152.181 1342.25 152.154C1342.26 152.1 1342.28 152.021 1342.3 151.922C1342.35 151.723 1342.42 151.439 1342.53 151.101C1342.74 150.424 1343.09 149.519 1343.65 148.612C1344.76 146.82 1346.68 145.009 1349.91 144.958C1349.95 144.931 1349.99 144.914 1350.05 144.914ZM1062.56 145.401C1064.59 145.401 1066.44 145.783 1067.83 146.41C1069.17 147.02 1070.14 147.895 1070.32 148.938C1070.36 149.01 1070.41 149.101 1070.46 149.181C1070.49 149.226 1070.52 149.266 1070.53 149.295C1070.54 149.309 1070.55 149.321 1070.55 149.329C1070.56 149.333 1070.56 149.336 1070.56 149.338C1070.56 149.339 1070.56 149.339 1070.56 149.34V149.341C1070.57 149.357 1070.58 149.374 1070.59 149.392L1081.8 181.318C1081.82 181.389 1081.81 181.465 1081.77 181.528C1082.11 182.688 1081.79 183.831 1081.06 184.694C1080.29 185.607 1079.06 186.206 1077.64 186.206C1075.8 186.206 1074.12 185.141 1073.58 183.559L1070.13 173.721H1054.77L1051.32 183.559C1050.78 185.141 1049.1 186.206 1047.26 186.206C1044.43 186.206 1042.31 183.762 1043.2 181.317L1054.4 149.392C1054.5 149.081 1054.69 148.783 1054.87 148.539C1055.23 147.602 1056.24 146.826 1057.57 146.284C1058.92 145.731 1060.67 145.401 1062.56 145.401ZM1199.3 145.606C1201.86 145.636 1203.99 147.542 1203.99 149.922C1203.99 152.32 1201.83 154.238 1199.24 154.238H1191.02V182.174C1191.02 184.409 1189 186.206 1186.59 186.206C1184.18 186.206 1182.15 184.452 1182.15 182.174V154.238H1173.94C1171.35 154.238 1169.19 152.32 1169.19 149.922C1169.19 147.524 1171.35 145.604 1173.94 145.604H1199.28L1199.3 145.606ZM1278.96 145.401C1280.99 145.401 1282.84 145.783 1284.23 146.41C1285.57 147.02 1286.54 147.895 1286.72 148.938C1286.76 149.01 1286.81 149.101 1286.86 149.181C1286.89 149.226 1286.92 149.266 1286.93 149.295C1286.94 149.309 1286.95 149.321 1286.96 149.329C1286.96 149.333 1286.96 149.336 1286.96 149.338L1286.96 149.34V149.341L1286.99 149.392L1298.2 181.318C1298.22 181.389 1298.21 181.465 1298.17 181.528C1298.51 182.688 1298.19 183.831 1297.46 184.694C1296.7 185.607 1295.46 186.206 1294.04 186.206C1292.2 186.206 1290.52 185.141 1289.98 183.559L1286.53 173.721H1271.17L1267.72 183.559C1267.18 185.141 1265.5 186.206 1263.66 186.206C1260.83 186.206 1258.71 183.762 1259.6 181.317L1270.8 149.392C1270.9 149.081 1271.09 148.783 1271.27 148.539C1271.63 147.602 1272.64 146.826 1273.97 146.284C1275.32 145.731 1277.07 145.401 1278.96 145.401ZM982.433 145.44C985.13 145.44 986.409 146.383 986.988 147.396C987.272 147.893 987.376 148.388 987.41 148.756C987.427 148.94 987.427 149.095 987.422 149.205C987.419 149.26 987.416 149.304 987.413 149.335C987.412 149.349 987.41 149.36 987.409 149.368V170.337C987.409 174.373 986.144 178.345 983.288 181.309C980.429 184.275 976.004 186.205 969.738 186.205C963.473 186.205 959.189 184.275 956.476 181.304C953.766 178.337 952.651 174.366 952.651 170.337V149.36C952.651 149.353 952.648 149.345 952.647 149.335C952.644 149.304 952.641 149.26 952.639 149.205C952.634 149.095 952.633 148.94 952.65 148.756C952.684 148.388 952.788 147.893 953.072 147.396C953.652 146.383 954.931 145.44 957.628 145.44C958.809 145.44 959.69 145.676 960.343 146.045C960.997 146.415 961.409 146.91 961.665 147.406C961.92 147.9 962.019 148.39 962.055 148.755C962.073 148.938 962.076 149.091 962.073 149.199C962.072 149.253 962.069 149.297 962.067 149.327C962.067 149.339 962.065 149.349 962.064 149.357V170.134C962.064 172.177 962.547 173.693 963.257 174.82C963.968 175.949 964.917 176.703 965.871 177.208C966.826 177.713 967.784 177.968 968.505 178.095C968.865 178.158 969.165 178.19 969.373 178.206C969.477 178.214 969.559 178.218 969.613 178.22C969.64 178.221 969.661 178.221 969.675 178.222H969.713C969.728 178.221 969.751 178.221 969.78 178.22C969.84 178.218 969.928 178.214 970.041 178.206C970.267 178.19 970.591 178.158 970.981 178.095C971.763 177.967 972.802 177.712 973.837 177.205C974.871 176.698 975.897 175.942 976.665 174.813C977.432 173.687 977.951 172.173 977.951 170.134V149.36C977.95 149.352 977.949 149.342 977.948 149.33C977.946 149.3 977.942 149.256 977.94 149.202C977.937 149.094 977.938 148.94 977.954 148.757C977.986 148.392 978.081 147.901 978.333 147.407C978.586 146.911 978.998 146.415 979.654 146.045C980.31 145.676 981.196 145.44 982.388 145.44H982.433ZM1007.15 145.44C1009.78 145.44 1011.99 147.4 1011.99 149.839V176.188H1024.39C1027.43 176.188 1029.9 178.391 1029.9 181.196C1029.9 184.001 1027.43 186.205 1024.39 186.205H1007.15C1004.51 186.205 1002.3 184.245 1002.3 181.807V149.839C1002.3 147.4 1004.51 145.44 1007.15 145.44ZM1240.7 145.44C1243.38 145.441 1245.63 147.441 1245.63 149.92C1245.63 152.399 1243.38 154.4 1240.7 154.4H1224.92V162.197H1239.67C1241.85 162.197 1243.65 163.79 1243.65 165.822C1243.65 167.854 1241.85 169.448 1239.67 169.448H1224.92V177.245H1240.7C1243.38 177.245 1245.63 179.246 1245.63 181.726C1245.63 184.205 1243.38 186.205 1240.7 186.205H1219.59C1216.68 186.205 1214.25 184.084 1214.25 181.359V150.286C1214.25 147.605 1216.64 145.44 1219.59 145.44H1240.7ZM1127.64 145.074C1128.69 144.987 1129.65 145.274 1130.68 145.971C1130.69 145.977 1130.7 145.985 1130.71 145.992C1130.75 146.031 1130.78 146.075 1130.8 146.116C1132.05 146.816 1132.9 148.033 1132.9 149.473V182.172C1132.9 184.407 1130.88 186.204 1128.47 186.204C1126.06 186.204 1124.03 184.45 1124.03 182.172V155.03L1119.91 157.412C1118.26 158.425 1116.95 158.774 1115.91 158.736C1114.85 158.698 1114.09 158.271 1113.54 157.796C1113.51 157.769 1113.49 157.735 1113.47 157.698C1112.65 156.96 1112.27 156.051 1112.34 155.14C1112.43 154.191 1113 153.286 1113.96 152.603C1114.68 152.084 1117.23 150.514 1119.59 149.081C1120.77 148.361 1121.91 147.673 1122.76 147.165C1123.18 146.911 1123.53 146.702 1123.77 146.557C1123.89 146.484 1123.99 146.427 1124.05 146.389C1124.09 146.369 1124.11 146.355 1124.13 146.345C1124.14 146.34 1124.14 146.336 1124.15 146.333C1124.15 146.332 1124.15 146.331 1124.15 146.33H1124.15L1124.16 146.323C1125.5 145.608 1126.6 145.16 1127.64 145.074ZM804.167 144.75C816.75 144.75 826.971 153.949 826.971 165.376C826.971 176.803 816.75 186.003 804.167 186.003C791.584 186.003 781.363 176.803 781.363 165.376C781.363 153.949 791.584 144.75 804.167 144.75ZM804.167 152.814C796.313 152.814 790.012 158.543 790.012 165.58C790.012 172.617 796.313 178.345 804.167 178.345C812.021 178.345 818.322 172.617 818.322 165.58C818.322 158.543 812.021 152.815 804.167 152.814ZM1057.06 167.445H1068.02L1063.02 153.141H1062.06L1057.06 167.445ZM1273.42 167.445H1284.37L1279.37 153.141H1278.42L1273.42 167.445ZM857.055 152.549C855.069 152.466 853.069 152.653 851.562 152.862C850.81 152.967 850.183 153.077 849.744 153.16C849.535 153.2 849.368 153.233 849.251 153.258V162.172C849.363 162.198 849.523 162.236 849.725 162.28C850.148 162.372 850.754 162.496 851.481 162.617C852.939 162.861 854.88 163.099 856.826 163.081C858.778 163.063 860.708 162.788 862.16 162.028C863.595 161.278 864.568 160.054 864.643 158.09C864.68 157.037 864.47 156.184 864.082 155.494C863.694 154.803 863.121 154.26 862.414 153.837C860.992 152.986 859.046 152.632 857.055 152.549ZM1141.8 146.783C1143.67 146.783 1145.24 148.165 1145.24 149.921C1145.24 151.677 1143.67 153.059 1141.8 153.059C1139.92 153.059 1138.35 151.677 1138.35 149.921C1138.35 148.165 1139.92 146.783 1141.8 146.783Z" fill="white"/>
</svg>
