<svg width="345" height="50" viewBox="0 0 345 50" fill="none" xmlns="http://www.w3.org/2000/svg">
<path d="M25.0732 0.5C29.3703 0.500025 33.5971 1.6462 37.3232 3.7959C40.795 5.79888 43.7055 8.61115 45.8252 12H45.7715L46.2041 12.75C48.3538 16.4762 49.5 20.7029 49.5 25C49.5 29.2971 48.3538 33.5238 46.2041 37.25C44.055 40.9751 40.9751 44.055 37.25 46.2041C33.5238 48.3538 29.2971 49.5 25 49.5C20.7029 49.5 16.4762 48.3538 12.75 46.2041C9.02495 44.055 5.94497 40.9751 3.7959 37.25C1.64617 33.5238 0.5 29.2971 0.5 25C0.5 20.7032 1.64582 16.4787 3.86523 12.7559L3.86914 12.75C6.01821 9.02497 9.09821 5.94496 12.8232 3.7959C16.5494 1.64621 20.7762 0.5 25.0732 0.5ZM24.8857 28.7031L5.7334 36.4521L5.18066 36.6758L5.49805 37.1807C7.51349 40.3904 10.2767 43.0804 13.5664 44.9502V44.9512C17.0785 46.9687 21.0392 48.0146 25.0732 48.0146C29.1071 48.0146 33.0672 46.9686 36.5791 44.9512L36.5781 44.9502C39.8684 43.0804 42.6327 40.3909 44.6484 37.1807L44.9658 36.6758L44.4131 36.4521L25.2607 28.7031L25.0732 28.627L24.8857 28.7031ZM24.2588 1.98535C20.5123 2.06032 16.7769 3.1838 13.4961 5.04785L13.4932 5.04883C9.981 7.06653 7.06653 9.981 5.04883 13.4932C3.03126 17.0052 1.98535 20.9659 1.98535 25C1.98535 28.8134 2.95758 32.5492 4.74902 35.9082L5.0293 36.4336L5.49805 36.0664L21.7266 23.3467L21.8857 23.2227L21.9131 23.0225L24.7646 2.55469L24.8447 1.97363L24.2588 1.98535ZM25.2354 2.55469L28.0869 23.0225L28.1143 23.2227L28.2744 23.3477L44.1924 35.7676L43.9766 36.1729H46.3369L45.4648 35.4922C47.117 32.2602 48.0146 28.8695 48.0146 25C48.0146 20.9659 46.9687 17.0052 44.9512 13.4932C42.9335 9.981 40.019 7.06653 36.5068 5.04883L36.5039 5.04785L35.8838 4.70703C32.7602 3.05328 29.3205 2.12539 25.751 1.98535L25.1533 1.96191L25.2354 2.55469Z" fill="white" stroke="white"/>
<mask id="path-2-inside-1_1256_1107" fill="white">
<path d="M344.998 12.8717C344.998 12.2378 344.521 11.4454 343.567 11.4454H317.33C316.694 11.4454 315.899 11.9208 315.899 12.8717V14.932C315.899 15.8829 316.535 16.5169 317.33 16.5169H333.709C334.663 16.5169 334.663 16.9923 334.663 18.1017C334.663 19.2111 334.663 19.6865 333.709 19.6865H300.316C299.68 19.6865 298.885 19.2111 298.885 18.2602V8.59269C298.885 7.95876 299.362 7.16634 300.316 7.16634H343.249C343.885 7.16634 344.68 6.69089 344.68 5.73999V1.93639C344.68 1.30246 344.203 0.510046 343.249 0.510046H289.98C289.344 0.510046 288.549 0.985495 288.549 1.93639V25.7089C288.549 26.3428 289.026 27.1352 289.98 27.1352H343.363C344.384 27.1352 344.998 26.5203 344.998 25.7089L344.998 12.8717ZM259.927 19.3695C259.291 19.845 258.496 20.3204 257.86 20.3204H251.023C250.069 20.3204 249.432 19.845 248.955 19.3695L236.075 10.8115C235.439 10.336 234.644 10.653 234.644 11.4454V25.5504C234.644 26.1843 234.167 26.9767 233.213 26.9767H226.376C225.422 26.9767 224.786 26.3428 224.786 25.5504V1.77791C224.786 0.827012 225.422 0.351562 226.376 0.351562H233.69C234.326 0.351562 235.28 0.510045 235.757 0.985495L253.249 12.5548C253.885 13.0302 254.839 13.0302 255.316 12.5548L272.807 0.985495C273.443 0.510045 274.238 0.351562 274.874 0.351562H282.189C282.825 0.351562 283.62 0.827012 283.62 1.77791V25.5504C283.62 26.1843 283.143 26.9767 282.189 26.9767H275.351C274.397 26.9767 273.761 26.3428 273.761 25.5504V11.4454C273.761 10.4945 273.284 10.336 272.33 10.8115L259.927 19.3695ZM183.761 7.64179C183.284 7.64179 183.079 7.57523 182.648 8.11724L178.513 13.5057C178.173 13.9811 178.513 14.1396 178.672 14.1396H208.567C209.521 14.1396 209.521 13.6642 209.521 13.0302V9.22662C209.521 8.11724 209.521 7.64179 208.567 7.64179H183.602H183.761ZM166.269 27.4522H157.365C156.888 27.4522 156.502 27.0655 156.411 26.8183V26.3428L175.174 1.77791C175.583 1.30563 176.128 0.827011 176.764 0.827011H217.153C218.107 0.827011 218.743 1.77791 218.743 2.72881V26.0258C218.743 26.6598 218.266 27.4522 217.312 27.4522H210.475C209.839 27.4522 209.044 26.9767 209.044 26.0258V22.5392C209.044 21.5883 209.044 21.4298 208.089 21.4298H172.63C171.994 21.4298 171.517 21.9053 171.199 22.3807L168.655 26.1843C168.087 26.7929 167.224 27.4522 166.269 27.4522ZM148.301 27.2937C149.255 27.2937 150.096 26.7929 150.686 26.0258L168.973 2.25336C169.609 1.30246 169.132 0.66853 168.496 0.66853H164.679C164.043 0.66853 163.453 1.16934 163.089 1.61943L144.326 26.1843C143.962 26.6566 144.099 27.0655 144.485 27.2937H148.301ZM135.58 27.2937C136.534 27.2937 137.284 26.7929 137.965 26.0258L156.252 2.25336C156.888 1.30246 156.411 0.66853 155.775 0.66853H150.686C150.05 0.66853 149.414 1.16934 149.096 1.61943L130.333 26.1843C129.924 26.7929 130.333 27.1352 130.492 27.2937H135.58ZM114.75 27.6107C113.977 27.6107 113.796 26.9767 113.796 26.8183V26.3428L132.559 1.77791C133.036 1.30246 133.513 0.827011 134.149 0.827011H141.623C142.577 0.827011 142.736 1.46094 142.1 2.41184L123.813 26.1843C123.109 27.0655 122.382 27.6107 121.428 27.6107H114.432H114.75ZM97.4856 27.6107C97.0086 27.6107 96.6224 26.9767 96.6224 26.8183V26.3428L115.386 1.77791C115.863 1.30246 116.34 0.827011 116.976 0.827011H126.994C127.948 0.827011 128.107 1.46094 127.471 2.41184L109.184 26.1843C108.389 27.2018 107.753 27.6107 106.799 27.6107H97.2585H97.5765H97.4856ZM69.2724 27.6107C68.7954 27.6107 68.3184 26.9767 68.3184 26.8183V26.3428L87.0817 1.77791C87.5587 1.30246 88.0358 0.827011 88.6718 0.827011H110.933C111.888 0.827011 112.047 1.46094 111.41 2.41184L93.1242 26.1843C92.4427 27.0655 91.693 27.6107 90.739 27.6107H68.9544H69.2724Z"/>
</mask>
<path d="M259.927 19.3695V19.1195H259.768V19.3695V19.6195H259.927V19.3695ZM344.998 12.8717H344.498V12.8717L344.998 12.8717ZM344.998 25.7089L345.498 25.7089V25.7089H344.998ZM259.927 19.3695L259.643 18.958L259.635 18.9634L259.628 18.9691L259.927 19.3695ZM248.955 19.3695L249.308 19.0154L249.273 18.9805L249.232 18.9531L248.955 19.3695ZM236.075 10.8115L235.776 11.2119L235.787 11.2202L235.799 11.2279L236.075 10.8115ZM235.757 0.985495L235.404 1.33964L235.44 1.37494L235.482 1.40252L235.757 0.985495ZM253.249 12.5548L253.548 12.1543L253.537 12.1457L253.525 12.1377L253.249 12.5548ZM255.316 12.5548L255.04 12.1377L254.998 12.1653L254.963 12.2006L255.316 12.5548ZM272.807 0.985495L273.083 1.40252L273.095 1.39459L273.107 1.38597L272.807 0.985495ZM272.33 10.8115L272.107 10.3639L272.075 10.3798L272.046 10.3999L272.33 10.8115ZM182.648 8.11724L182.256 7.80573L182.251 7.81288L182.648 8.11724ZM178.513 13.5057L178.117 13.2013L178.112 13.2078L178.107 13.2144L178.513 13.5057ZM156.411 26.8183H155.911V26.9072L155.941 26.9907L156.411 26.8183ZM156.411 26.3428L156.013 26.0393L155.911 26.1737V26.3428H156.411ZM175.174 1.77791L174.796 1.45064L174.786 1.46223L174.777 1.47441L175.174 1.77791ZM171.199 22.3807L171.614 22.6587V22.6587L171.199 22.3807ZM168.655 26.1843L169.02 26.5255L169.048 26.4959L169.07 26.4623L168.655 26.1843ZM150.686 26.0258L151.082 26.3309L151.083 26.3307L150.686 26.0258ZM168.973 2.25336L169.369 2.55822L169.379 2.5451L169.388 2.53135L168.973 2.25336ZM163.089 1.61943L162.7 1.30518L162.692 1.31592L163.089 1.61943ZM144.326 26.1843L144.722 26.4893L144.723 26.4878L144.326 26.1843ZM144.485 27.2937L144.23 27.7242L144.348 27.7937H144.485V27.2937ZM137.965 26.0258L138.339 26.3579L138.351 26.3447L138.362 26.3307L137.965 26.0258ZM156.252 2.25336L156.648 2.55822L156.658 2.5451L156.667 2.53135L156.252 2.25336ZM149.096 1.61943L149.494 1.92293L149.499 1.91555L149.505 1.90796L149.096 1.61943ZM130.333 26.1843L129.935 25.8808L129.926 25.8929L129.918 25.9055L130.333 26.1843ZM130.492 27.2937L130.139 27.6479L130.285 27.7937H130.492V27.2937ZM113.796 26.3428L113.398 26.0393L113.296 26.1737V26.3428H113.796ZM132.559 1.77791L132.206 1.42377L132.182 1.44759L132.162 1.47441L132.559 1.77791ZM142.1 2.41184L142.496 2.7167L142.506 2.70358L142.515 2.68983L142.1 2.41184ZM123.813 26.1843L124.204 26.4965L124.21 26.4892L123.813 26.1843ZM96.6224 26.3428L96.2251 26.0393L96.1224 26.1737V26.3428H96.6224ZM115.386 1.77791L115.033 1.42377L115.009 1.44759L114.988 1.47441L115.386 1.77791ZM127.471 2.41184L127.867 2.7167L127.877 2.70358L127.886 2.68983L127.471 2.41184ZM109.184 26.1843L109.578 26.4922L109.581 26.4892L109.184 26.1843ZM68.3184 26.3428L67.921 26.0393L67.8184 26.1737V26.3428H68.3184ZM87.0817 1.77791L86.7287 1.42377L86.7048 1.44759L86.6844 1.47441L87.0817 1.77791ZM111.41 2.41184L111.807 2.7167L111.817 2.70358L111.826 2.68983L111.41 2.41184ZM93.1242 26.1843L93.5197 26.4902L93.5205 26.4892L93.1242 26.1843ZM344.998 12.8717H345.498C345.498 12.0351 344.866 10.9454 343.567 10.9454V11.4454V11.9454C344.177 11.9454 344.498 12.4405 344.498 12.8717H344.998ZM343.567 11.4454V10.9454H317.33V11.4454V11.9454H343.567V11.4454ZM317.33 11.4454V10.9454C316.495 10.9454 315.399 11.5737 315.399 12.8717H315.899H316.399C316.399 12.2679 316.894 11.9454 317.33 11.9454V11.4454ZM315.899 12.8717H315.399V14.932H315.899H316.399V12.8717H315.899ZM315.899 14.932H315.399C315.399 16.1251 316.226 17.0169 317.33 17.0169V16.5169V16.0169C316.844 16.0169 316.399 15.6407 316.399 14.932H315.899ZM317.33 16.5169V17.0169H333.709V16.5169V16.0169H317.33V16.5169ZM333.709 16.5169V17.0169C333.914 17.0169 334.01 17.0439 334.051 17.0625C334.071 17.072 334.077 17.0765 334.09 17.1034C334.111 17.1501 334.136 17.2421 334.149 17.4231C334.162 17.6012 334.163 17.8183 334.163 18.1017H334.663H335.163C335.163 17.8304 335.163 17.572 335.146 17.349C335.13 17.1288 335.095 16.8939 334.997 16.6831C334.89 16.4525 334.717 16.2687 334.47 16.1545C334.242 16.0493 333.98 16.0169 333.709 16.0169V16.5169ZM334.663 18.1017H334.163C334.163 18.3851 334.162 18.6022 334.149 18.7803C334.136 18.9613 334.111 19.0533 334.09 19.1C334.077 19.1269 334.071 19.1313 334.051 19.1409C334.01 19.1595 333.914 19.1865 333.709 19.1865V19.6865V20.1865C333.98 20.1865 334.242 20.1541 334.47 20.0489C334.717 19.9346 334.89 19.7509 334.997 19.5202C335.095 19.3094 335.13 19.0745 335.146 18.8544C335.163 18.6313 335.163 18.3729 335.163 18.1017H334.663ZM333.709 19.6865V19.1865H300.316V19.6865V20.1865H333.709V19.6865ZM300.316 19.6865V19.1865C299.879 19.1865 299.385 18.864 299.385 18.2602H298.885H298.385C298.385 19.5582 299.481 20.1865 300.316 20.1865V19.6865ZM298.885 18.2602H299.385V8.59269H298.885H298.385V18.2602H298.885ZM298.885 8.59269H299.385C299.385 8.16147 299.706 7.66634 300.316 7.66634V7.16634V6.66634C299.018 6.66634 298.385 7.75605 298.385 8.59269H298.885ZM300.316 7.16634V7.66634H343.249V7.16634V6.66634H300.316V7.16634ZM343.249 7.16634V7.66634C344.085 7.66634 345.18 7.03801 345.18 5.73999H344.68H344.18C344.18 6.34377 343.686 6.66634 343.249 6.66634V7.16634ZM344.68 5.73999H345.18V1.93639H344.68H344.18V5.73999H344.68ZM344.68 1.93639H345.18C345.18 1.09972 344.548 0.0100463 343.249 0.0100463V0.510046V1.01005C343.859 1.01005 344.18 1.50521 344.18 1.93639H344.68ZM343.249 0.510046V0.0100463H289.98V0.510046V1.01005H343.249V0.510046ZM289.98 0.510046V0.0100463C289.145 0.0100463 288.049 0.638401 288.049 1.93639H288.549H289.049C289.049 1.33259 289.544 1.01005 289.98 1.01005V0.510046ZM288.549 1.93639H288.049V25.7089H288.549H289.049V1.93639H288.549ZM288.549 25.7089H288.049C288.049 26.5455 288.682 27.6352 289.98 27.6352V27.1352V26.6352C289.371 26.6352 289.049 26.1401 289.049 25.7089H288.549ZM289.98 27.1352V27.6352H343.363V27.1352V26.6352H289.98V27.1352ZM343.363 27.1352V27.6352C343.974 27.6352 344.51 27.45 344.899 27.0967C345.292 26.7408 345.498 26.2466 345.498 25.7089L344.998 25.7089L344.498 25.7089C344.498 25.9826 344.398 26.2015 344.227 26.356C344.054 26.513 343.773 26.6352 343.363 26.6352V27.1352ZM344.998 25.7089H345.498L345.498 12.8717L344.998 12.8717L344.498 12.8717L344.498 25.7089H344.998ZM259.927 19.3695L259.628 18.9691C259.323 19.1967 258.992 19.4156 258.671 19.5758C258.341 19.74 258.065 19.8204 257.86 19.8204V20.3204V20.8204C258.291 20.8204 258.731 20.6632 259.117 20.4708C259.511 20.2744 259.895 20.0179 260.227 19.77L259.927 19.3695ZM257.86 20.3204V19.8204H251.023V20.3204V20.8204H257.86V20.3204ZM251.023 20.3204V19.8204C250.261 19.8204 249.745 19.4505 249.308 19.0154L248.955 19.3695L248.602 19.7237C249.12 20.2395 249.876 20.8204 251.023 20.8204V20.3204ZM248.955 19.3695L249.232 18.9531L236.352 10.395L236.075 10.8115L235.799 11.2279L248.679 19.786L248.955 19.3695ZM236.075 10.8115L236.375 10.411C235.933 10.081 235.388 9.99519 234.925 10.1932C234.448 10.3969 234.144 10.8653 234.144 11.4454H234.644H235.144C235.144 11.2331 235.238 11.1468 235.318 11.1128C235.411 11.073 235.581 11.0664 235.776 11.2119L236.075 10.8115ZM234.644 11.4454H234.144V25.5504H234.644H235.144V11.4454H234.644ZM234.644 25.5504H234.144C234.144 25.9816 233.823 26.4767 233.213 26.4767V26.9767V27.4767C234.512 27.4767 235.144 26.3871 235.144 25.5504H234.644ZM233.213 26.9767V26.4767H226.376V26.9767V27.4767H233.213V26.9767ZM226.376 26.9767V26.4767C225.661 26.4767 225.286 26.0309 225.286 25.5504H224.786H224.286C224.286 26.6547 225.183 27.4767 226.376 27.4767V26.9767ZM224.786 25.5504H225.286V1.77791H224.786H224.286V25.5504H224.786ZM224.786 1.77791H225.286C225.286 1.42132 225.4 1.21459 225.548 1.08832C225.708 0.951775 225.975 0.851562 226.376 0.851562V0.351562V-0.148438C225.822 -0.148438 225.295 -0.0109256 224.898 0.327983C224.489 0.677162 224.286 1.1836 224.286 1.77791H224.786ZM226.376 0.351562V0.851562H233.69V0.351562V-0.148438H226.376V0.351562ZM233.69 0.351562V0.851562C233.972 0.851562 234.326 0.887201 234.657 0.973876C234.996 1.06299 235.256 1.1917 235.404 1.33964L235.757 0.985495L236.11 0.631354C235.782 0.30384 235.326 0.115584 234.91 0.00659391C234.486 -0.104835 234.045 -0.148438 233.69 -0.148438V0.351562ZM235.757 0.985495L235.482 1.40252L252.973 12.9718L253.249 12.5548L253.525 12.1377L236.033 0.568465L235.757 0.985495ZM253.249 12.5548L252.949 12.9552C253.361 13.2626 253.865 13.4114 254.342 13.4114C254.815 13.4114 255.313 13.2635 255.669 12.9089L255.316 12.5548L254.963 12.2006C254.842 12.3215 254.625 12.4114 254.342 12.4114C254.063 12.4114 253.773 12.3224 253.548 12.1543L253.249 12.5548ZM255.316 12.5548L255.592 12.9718L273.083 1.40252L272.807 0.985495L272.531 0.568465L255.04 12.1377L255.316 12.5548ZM272.807 0.985495L273.107 1.38597C273.63 0.994879 274.308 0.851562 274.874 0.851562V0.351562V-0.148438C274.169 -0.148438 273.257 0.0252111 272.508 0.585016L272.807 0.985495ZM274.874 0.351562V0.851562H282.189V0.351562V-0.148438H274.874V0.351562ZM282.189 0.351562V0.851562C282.625 0.851562 283.12 1.17411 283.12 1.77791H283.62H284.12C284.12 0.479917 283.024 -0.148438 282.189 -0.148438V0.351562ZM283.62 1.77791H283.12V25.5504H283.62H284.12V1.77791H283.62ZM283.62 25.5504H283.12C283.12 25.9816 282.799 26.4767 282.189 26.4767V26.9767V27.4767C283.487 27.4767 284.12 26.387 284.12 25.5504H283.62ZM282.189 26.9767V26.4767H275.351V26.9767V27.4767H282.189V26.9767ZM275.351 26.9767V26.4767C274.636 26.4767 274.261 26.0309 274.261 25.5504H273.761H273.261C273.261 26.6547 274.158 27.4767 275.351 27.4767V26.9767ZM273.761 25.5504H274.261V11.4454H273.761H273.261V25.5504H273.761ZM273.761 11.4454H274.261C274.261 10.9397 274.14 10.3578 273.595 10.1318C273.35 10.0299 273.089 10.0379 272.855 10.0866C272.618 10.1358 272.366 10.2348 272.107 10.3639L272.33 10.8115L272.553 11.259C272.771 11.1504 272.937 11.0909 273.058 11.0658C273.181 11.0402 273.219 11.0582 273.212 11.0553C273.189 11.0461 273.193 11.0308 273.211 11.0729C273.235 11.1283 273.261 11.242 273.261 11.4454H273.761ZM272.33 10.8115L272.046 10.3999L259.643 18.958L259.927 19.3695L260.211 19.7811L272.614 11.223L272.33 10.8115ZM183.761 7.64179V7.14179C183.675 7.14179 183.529 7.13773 183.434 7.14C183.319 7.14277 183.184 7.15384 183.039 7.19873C182.734 7.29334 182.498 7.50286 182.256 7.80578L182.648 8.11724L183.039 8.4287C183.229 8.18961 183.311 8.16141 183.335 8.15379C183.355 8.14757 183.388 8.14141 183.458 8.13972C183.549 8.13754 183.608 8.14179 183.761 8.14179V7.64179ZM182.648 8.11724L182.251 7.81288L178.117 13.2013L178.513 13.5057L178.91 13.81L183.044 8.4216L182.648 8.11724ZM178.513 13.5057L178.107 13.2144C177.887 13.5215 177.76 13.9148 177.983 14.2677C178.166 14.558 178.484 14.6396 178.672 14.6396V14.1396V13.6396C178.706 13.6396 178.726 13.646 178.74 13.6523C178.755 13.6595 178.795 13.6814 178.828 13.7342C178.867 13.7961 178.87 13.8572 178.865 13.8867C178.862 13.905 178.862 13.8772 178.92 13.7969L178.513 13.5057ZM178.672 14.1396V14.6396H208.567V14.1396V13.6396H178.672V14.1396ZM208.567 14.1396V14.6396C209.109 14.6396 209.575 14.5035 209.83 14.0805C209.942 13.8944 209.984 13.6951 210.003 13.5264C210.021 13.3597 210.021 13.1815 210.021 13.0302H209.521H209.021C209.021 13.1959 209.02 13.3149 209.009 13.4156C208.998 13.5144 208.98 13.5528 208.973 13.5648C208.973 13.5651 208.971 13.5756 208.93 13.5921C208.877 13.6136 208.769 13.6396 208.567 13.6396V14.1396ZM209.521 13.0302H210.021V9.22662H209.521H209.021V13.0302H209.521ZM209.521 9.22662H210.021C210.021 8.95537 210.021 8.69698 210.004 8.47392C209.988 8.2538 209.953 8.01887 209.855 7.80809C209.748 7.57743 209.575 7.39368 209.328 7.27942C209.1 7.1742 208.838 7.14179 208.567 7.14179V7.64179V8.14179C208.772 8.14179 208.868 8.16882 208.909 8.18741C208.929 8.19697 208.935 8.20141 208.948 8.22829C208.969 8.27504 208.994 8.36699 209.007 8.54803C209.02 8.72613 209.021 8.94319 209.021 9.22662H209.521ZM208.567 7.64179V7.14179H183.602V7.64179V8.14179H208.567V7.64179ZM183.602 7.64179V8.14179H183.761V7.64179V7.14179H183.602V7.64179ZM166.269 27.4522V26.9522H157.365V27.4522V27.9522H166.269V27.4522ZM157.365 27.4522V26.9522C157.262 26.9522 157.15 26.9097 157.046 26.8302C156.995 26.7915 156.953 26.7491 156.923 26.7106C156.89 26.6695 156.88 26.6451 156.88 26.6458L156.411 26.8183L155.941 26.9907C156.028 27.2254 156.217 27.4562 156.44 27.6257C156.671 27.8013 156.99 27.9522 157.365 27.9522V27.4522ZM156.411 26.8183H156.911V26.3428H156.411H155.911V26.8183H156.411ZM156.411 26.3428L156.808 26.6463L175.571 2.08142L175.174 1.77791L174.777 1.47441L156.013 26.0393L156.411 26.3428ZM175.174 1.77791L175.552 2.10518C175.957 1.63784 176.37 1.32701 176.764 1.32701V0.827011V0.327011C175.886 0.327011 175.209 0.973419 174.796 1.45064L175.174 1.77791ZM176.764 0.827011V1.32701H217.153V0.827011V0.327011H176.764V0.827011ZM217.153 0.827011V1.32701C217.449 1.32701 217.71 1.47037 217.912 1.72893C218.118 1.99294 218.243 2.3587 218.243 2.72881H218.743H219.243C219.243 2.14802 219.051 1.56288 218.7 1.11372C218.345 0.6591 217.812 0.327011 217.153 0.327011V0.827011ZM218.743 2.72881H218.243V26.0258H218.743H219.243V2.72881H218.743ZM218.743 26.0258H218.243C218.243 26.4571 217.922 26.9522 217.312 26.9522V27.4522V27.9522C218.61 27.9522 219.243 26.8625 219.243 26.0258H218.743ZM217.312 27.4522V26.9522H210.475V27.4522V27.9522H217.312V27.4522ZM210.475 27.4522V26.9522C210.038 26.9522 209.544 26.6296 209.544 26.0258H209.044H208.544C208.544 27.3238 209.639 27.9522 210.475 27.9522V27.4522ZM209.044 26.0258H209.544V22.5392H209.044H208.544V26.0258H209.044ZM209.044 22.5392H209.544C209.544 22.3113 209.544 22.094 209.526 21.9148C209.508 21.7383 209.467 21.5175 209.324 21.3273C209.168 21.1202 208.952 21.0263 208.749 20.9813C208.558 20.9388 208.331 20.9298 208.089 20.9298V21.4298V21.9298C208.325 21.9298 208.456 21.9406 208.533 21.9576C208.598 21.972 208.561 21.9772 208.525 21.9286C208.501 21.8968 208.519 21.8939 208.531 22.0146C208.543 22.1325 208.544 22.2916 208.544 22.5392H209.044ZM208.089 21.4298V20.9298H172.63V21.4298V21.9298H208.089V21.4298ZM172.63 21.4298V20.9298C171.729 20.9298 171.122 21.5967 170.783 22.1027L171.199 22.3807L171.614 22.6587C171.912 22.2139 172.258 21.9298 172.63 21.9298V21.4298ZM171.199 22.3807L170.783 22.1027L168.239 25.9063L168.655 26.1843L169.07 26.4623L171.614 22.6587L171.199 22.3807ZM168.655 26.1843L168.289 25.8432C167.745 26.4266 167.007 26.9522 166.269 26.9522V27.4522V27.9522C167.44 27.9522 168.429 27.1592 169.02 26.5255L168.655 26.1843ZM148.301 27.2937V27.7937C149.442 27.7937 150.418 27.1937 151.082 26.3309L150.686 26.0258L150.29 25.7208C149.773 26.3921 149.069 26.7937 148.301 26.7937V27.2937ZM150.686 26.0258L151.083 26.3307L169.369 2.55822L168.973 2.25336L168.576 1.94851L150.29 25.721L150.686 26.0258ZM168.973 2.25336L169.388 2.53135C169.761 1.97384 169.881 1.39526 169.67 0.906845C169.459 0.415189 168.978 0.16853 168.496 0.16853V0.66853V1.16853C168.65 1.16853 168.725 1.23884 168.752 1.30187C168.78 1.36815 168.82 1.58198 168.557 1.97537L168.973 2.25336ZM168.496 0.66853V0.16853H164.679V0.66853V1.16853H168.496V0.66853ZM164.679 0.66853V0.16853C164.23 0.16853 163.828 0.344103 163.505 0.558982C163.18 0.775169 162.905 1.05118 162.7 1.3053L163.089 1.61943L163.478 1.93356C163.636 1.73758 163.839 1.53815 164.059 1.39141C164.282 1.24336 164.492 1.16853 164.679 1.16853V0.66853ZM163.089 1.61943L162.692 1.31592L143.929 25.8808L144.326 26.1843L144.723 26.4878L163.487 1.92293L163.089 1.61943ZM144.326 26.1843L143.93 25.8794C143.688 26.1935 143.562 26.5565 143.633 26.926C143.705 27.2922 143.95 27.5584 144.23 27.7242L144.485 27.2937L144.739 26.8633C144.634 26.8008 144.618 26.7484 144.615 26.7351C144.613 26.725 144.6 26.6474 144.722 26.4893L144.326 26.1843ZM144.485 27.2937V27.7937H148.301V27.2937V26.7937H144.485V27.2937ZM135.58 27.2937V27.7937C136.737 27.7937 137.612 27.1768 138.339 26.3579L137.965 26.0258L137.592 25.6938C136.956 26.409 136.331 26.7937 135.58 26.7937V27.2937ZM137.965 26.0258L138.362 26.3307L156.648 2.55822L156.252 2.25336L155.855 1.94851L137.569 25.721L137.965 26.0258ZM156.252 2.25336L156.667 2.53135C157.04 1.97384 157.16 1.39526 156.95 0.906842C156.738 0.415188 156.257 0.16853 155.775 0.16853V0.66853V1.16853C155.929 1.16853 156.004 1.23884 156.031 1.30188C156.059 1.36815 156.099 1.58198 155.836 1.97537L156.252 2.25336ZM155.775 0.66853V0.16853H150.686V0.66853V1.16853H155.775V0.66853ZM150.686 0.66853V0.16853C150.241 0.16853 149.828 0.3417 149.499 0.556377C149.167 0.772568 148.883 1.05462 148.688 1.3309L149.096 1.61943L149.505 1.90796C149.627 1.73415 149.82 1.54075 150.045 1.39401C150.272 1.24576 150.496 1.16853 150.686 1.16853V0.66853ZM149.096 1.61943L148.699 1.31592L129.935 25.8808L130.333 26.1843L130.73 26.4878L149.494 1.92293L149.096 1.61943ZM130.333 26.1843L129.918 25.9055C129.634 26.3275 129.595 26.7363 129.734 27.09C129.852 27.3913 130.088 27.5972 130.139 27.6479L130.492 27.2937L130.845 26.9396C130.737 26.8318 130.689 26.7872 130.665 26.7256C130.658 26.7074 130.654 26.6889 130.658 26.6609C130.662 26.63 130.679 26.5652 130.748 26.4632L130.333 26.1843ZM130.492 27.2937V27.7937H135.58V27.2937V26.7937H130.492V27.2937ZM114.75 27.6107V27.1107C114.522 27.1107 114.425 27.0266 114.374 26.9624C114.343 26.9228 114.321 26.8791 114.307 26.8412C114.291 26.7958 114.296 26.7847 114.296 26.8183H113.796H113.296C113.296 27.0148 113.382 27.3219 113.592 27.5854C113.825 27.8777 114.205 28.1107 114.75 28.1107V27.6107ZM113.796 26.8183H114.296V26.3428H113.796H113.296V26.8183H113.796ZM113.796 26.3428L114.193 26.6463L132.956 2.08142L132.559 1.77791L132.162 1.47441L113.398 26.0393L113.796 26.3428ZM132.559 1.77791L132.912 2.13205C133.158 1.88725 133.364 1.68371 133.578 1.53571C133.784 1.39365 133.965 1.32701 134.149 1.32701V0.827011V0.327011C133.698 0.327011 133.321 0.498099 133.01 0.712628C132.708 0.921213 132.437 1.19313 132.206 1.42377L132.559 1.77791ZM134.149 0.827011V1.32701H141.623V0.827011V0.327011H134.149V0.827011ZM141.623 0.827011V1.32701C141.812 1.32701 141.912 1.35956 141.954 1.38199C141.963 1.3871 141.969 1.39124 141.972 1.39369C141.974 1.39494 141.975 1.39585 141.975 1.39638C141.975 1.39665 141.976 1.39685 141.976 1.39697C141.976 1.39703 141.976 1.39708 141.976 1.39711C141.976 1.39714 141.976 1.39715 141.976 1.39715C141.976 1.39715 141.976 1.39714 141.976 1.39712C141.976 1.3971 141.976 1.39706 141.976 1.39702C141.976 1.39694 141.976 1.39684 141.976 1.39672C141.975 1.39647 141.975 1.39628 141.975 1.39622C141.975 1.39599 141.976 1.3972 141.977 1.40063C141.981 1.41575 141.992 1.47977 141.95 1.61556C141.909 1.74891 141.825 1.92264 141.684 2.13385L142.1 2.41184L142.515 2.68983C142.692 2.4256 142.827 2.16349 142.905 1.91054C142.983 1.66003 143.013 1.38728 142.938 1.12505C142.765 0.521912 142.18 0.327011 141.623 0.327011V0.827011ZM142.1 2.41184L141.703 2.10699L123.417 25.8795L123.813 26.1843L124.21 26.4892L142.496 2.7167L142.1 2.41184ZM123.813 26.1843L123.423 25.8722C122.753 26.7099 122.155 27.1107 121.428 27.1107V27.6107V28.1107C122.61 28.1107 123.465 27.4211 124.204 26.4965L123.813 26.1843ZM121.428 27.6107V27.1107H114.432V27.6107V28.1107H121.428V27.6107ZM114.432 27.6107V28.1107H114.75V27.6107V27.1107H114.432V27.6107ZM97.4856 27.6107V27.1107C97.4791 27.1107 97.4537 27.1085 97.4065 27.0803C97.3587 27.0516 97.3045 27.0053 97.2512 26.9444C97.1985 26.8842 97.157 26.8216 97.1312 26.7733C97.1183 26.7492 97.1126 26.7347 97.1113 26.7311C97.1067 26.7179 97.1224 26.7538 97.1224 26.8183H96.6224H96.1224C96.1224 26.9224 96.1502 27.0127 96.1685 27.0645C96.1902 27.1259 96.2184 27.187 96.2492 27.2445C96.3107 27.3597 96.3956 27.4853 96.499 27.6034C96.6882 27.8193 97.0301 28.1107 97.4856 28.1107V27.6107ZM96.6224 26.8183H97.1224V26.3428H96.6224H96.1224V26.8183H96.6224ZM96.6224 26.3428L97.0197 26.6463L115.783 2.08142L115.386 1.77791L114.988 1.47441L96.2251 26.0393L96.6224 26.3428ZM115.386 1.77791L115.739 2.13205C115.984 1.88725 116.191 1.68371 116.405 1.53571C116.611 1.39365 116.791 1.32701 116.976 1.32701V0.827011V0.327011C116.524 0.327011 116.148 0.498099 115.837 0.712628C115.535 0.921213 115.264 1.19313 115.033 1.42377L115.386 1.77791ZM116.976 0.827011V1.32701H126.994V0.827011V0.327011H116.976V0.827011ZM126.994 0.827011V1.32701C127.183 1.32701 127.283 1.35956 127.325 1.38199C127.334 1.3871 127.34 1.39124 127.343 1.39369C127.345 1.39494 127.346 1.39585 127.346 1.39638C127.346 1.39665 127.347 1.39685 127.347 1.39697C127.347 1.39703 127.347 1.39708 127.347 1.39711C127.347 1.39714 127.347 1.39715 127.347 1.39715C127.347 1.39715 127.347 1.39714 127.347 1.39712C127.347 1.3971 127.347 1.39706 127.347 1.39702C127.347 1.39694 127.347 1.39684 127.347 1.39672C127.346 1.39647 127.346 1.39628 127.346 1.39622C127.346 1.39599 127.347 1.3972 127.348 1.40063C127.352 1.41575 127.363 1.47977 127.321 1.61556C127.28 1.74891 127.196 1.92264 127.055 2.13385L127.471 2.41184L127.886 2.68983C128.063 2.4256 128.198 2.16349 128.276 1.91054C128.354 1.66003 128.384 1.38728 128.309 1.12505C128.136 0.521912 127.551 0.327011 126.994 0.327011V0.827011ZM127.471 2.41184L127.074 2.10699L108.788 25.8795L109.184 26.1843L109.581 26.4892L127.867 2.7167L127.471 2.41184ZM109.184 26.1843L108.79 25.8765C108.409 26.3648 108.095 26.6676 107.792 26.8517C107.501 27.0281 107.196 27.1107 106.799 27.1107V27.6107V28.1107C107.357 28.1107 107.846 27.9888 108.311 27.7064C108.763 27.4316 109.165 27.0214 109.578 26.4922L109.184 26.1843ZM106.799 27.6107V27.1107H97.2585V27.6107V28.1107H106.799V27.6107ZM97.2585 27.6107V28.1107H97.5765V27.6107V27.1107H97.2585V27.6107ZM97.5765 27.6107V27.1107H97.4856V27.6107V28.1107H97.5765V27.6107ZM69.2724 27.6107V27.1107C69.2628 27.1107 69.2273 27.1066 69.1643 27.0717C69.1026 27.0376 69.0348 26.9848 68.9695 26.9198C68.9045 26.855 68.8533 26.7892 68.8218 26.7399C68.8143 26.7281 68.8086 26.7185 68.8047 26.7112C68.8006 26.7037 68.799 26.7001 68.7991 26.7003C68.7992 26.7005 68.8 26.7024 68.8012 26.7058C68.8024 26.7091 68.8043 26.7148 68.8065 26.7227C68.8099 26.7353 68.8184 26.7697 68.8184 26.8183H68.3184H67.8184C67.8184 26.9414 67.8585 27.0443 67.8805 27.0953C67.9079 27.1592 67.9427 27.2212 67.9789 27.278C68.0518 27.3921 68.1496 27.5145 68.2635 27.628C68.4701 27.8339 68.831 28.1107 69.2724 28.1107V27.6107ZM68.3184 26.8183H68.8184V26.3428H68.3184H67.8184V26.8183H68.3184ZM68.3184 26.3428L68.7157 26.6463L87.4791 2.08142L87.0817 1.77791L86.6844 1.47441L67.921 26.0393L68.3184 26.3428ZM87.0817 1.77791L87.4347 2.13205C87.6803 1.88725 87.8866 1.68371 88.1011 1.53571C88.307 1.39365 88.4873 1.32701 88.6718 1.32701V0.827011V0.327011C88.2203 0.327011 87.8441 0.498099 87.5332 0.712629C87.2309 0.921214 86.9602 1.19313 86.7287 1.42377L87.0817 1.77791ZM88.6718 0.827011V1.32701H110.933V0.827011V0.327011H88.6718V0.827011ZM110.933 0.827011V1.32701C111.123 1.32701 111.222 1.35956 111.264 1.38199C111.274 1.3871 111.28 1.39123 111.283 1.39369C111.284 1.39494 111.285 1.39585 111.286 1.39638C111.286 1.39665 111.286 1.39685 111.287 1.39697C111.287 1.39703 111.287 1.39708 111.287 1.39711C111.287 1.39714 111.287 1.39715 111.287 1.39715C111.287 1.39715 111.287 1.39714 111.287 1.39712C111.287 1.39709 111.287 1.39706 111.287 1.39702C111.287 1.39694 111.286 1.39684 111.286 1.39672C111.286 1.39647 111.286 1.39628 111.286 1.39622C111.286 1.39598 111.287 1.3972 111.288 1.40063C111.292 1.41575 111.303 1.47977 111.261 1.61556C111.22 1.74891 111.136 1.92264 110.995 2.13385L111.41 2.41184L111.826 2.68983C112.003 2.4256 112.138 2.16349 112.216 1.91054C112.294 1.66003 112.324 1.38728 112.249 1.12505C112.076 0.521912 111.491 0.327011 110.933 0.327011V0.827011ZM111.41 2.41184L111.014 2.10699L92.7278 25.8795L93.1242 26.1843L93.5205 26.4892L111.807 2.7167L111.41 2.41184ZM93.1242 26.1843L92.7286 25.8784C92.089 26.7055 91.4687 27.1107 90.739 27.1107V27.6107V28.1107C91.9174 28.1107 92.7963 27.4255 93.5197 26.4902L93.1242 26.1843ZM90.739 27.6107V27.1107H68.9544V27.6107V28.1107H90.739V27.6107ZM68.9544 27.6107V28.1107H69.2724V27.6107V27.1107H68.9544V27.6107Z" fill="white" mask="url(#path-2-inside-1_1256_1107)"/>
<path fill-rule="evenodd" clip-rule="evenodd" d="M123.458 37.6104C127.097 37.6105 130.096 40.2842 130.097 43.6289C130.097 46.9737 127.097 49.6483 123.458 49.6484C119.819 49.6484 116.819 46.9738 116.818 43.6289C116.819 40.2842 119.811 37.6104 123.458 37.6104ZM111.165 37.8828C112.126 37.8829 113.269 38.1088 114.177 38.8027C115.097 39.5058 115.743 40.6644 115.743 42.4531C115.743 44.1843 114.654 45.1416 113.641 45.6582L116.313 48.9619H116.312C116.373 49.0312 116.393 49.1281 116.359 49.2158C116.322 49.3121 116.229 49.376 116.126 49.376H112.195C112.12 49.3759 112.048 49.3417 112.001 49.2832L109.578 46.2881C109.216 46.2812 108.879 46.2727 108.626 46.2637C108.552 46.261 108.484 46.2572 108.426 46.2549V49.1191C108.426 49.2571 108.314 49.3691 108.176 49.3691H104.68C104.542 49.369 104.43 49.257 104.43 49.1191V39.0566C104.43 38.5109 104.664 38.1968 104.934 38.0342C105.06 37.958 105.185 37.9208 105.276 37.9023C105.322 37.8931 105.362 37.8883 105.391 37.8857C105.405 37.8845 105.418 37.8832 105.427 37.8828H111.165ZM164.747 37.8887C166.096 37.8887 167.206 38.2356 167.979 38.582C168.365 38.7552 168.668 38.9293 168.875 39.0605C168.979 39.1261 169.059 39.1814 169.114 39.2207C169.141 39.2399 169.162 39.2556 169.177 39.2666C169.184 39.272 169.19 39.2771 169.194 39.2803C169.196 39.2816 169.198 39.2833 169.199 39.2842L169.2 39.2852H169.201V39.2861C169.255 39.3294 169.29 39.3937 169.295 39.4629C169.3 39.5322 169.276 39.6005 169.229 39.6514L167.617 41.3857C167.546 41.4619 167.437 41.4859 167.343 41.4492L167.304 41.4297L167.302 41.4277C167.3 41.4265 167.295 41.4244 167.291 41.4219C167.282 41.4164 167.267 41.4078 167.249 41.3975C167.211 41.3761 167.154 41.3448 167.081 41.3076C166.935 41.2329 166.724 41.1329 166.47 41.0342C165.957 40.8353 165.277 40.6455 164.583 40.6611L164.582 40.6621C164.023 40.672 163.672 40.7338 163.467 40.8438C163.371 40.895 163.314 40.9538 163.277 41.0186C163.24 41.0851 163.216 41.1769 163.216 41.3086C163.216 41.3677 163.247 41.4531 163.379 41.5635C163.511 41.6737 163.714 41.7834 163.979 41.8887C164.509 42.0985 165.23 42.2663 165.969 42.3984H165.97C166.464 42.489 167.457 42.7767 168.333 43.333C169.208 43.8883 170.017 44.7477 170.018 45.9883C170.017 47.2034 169.429 48.0673 168.456 48.6123C167.5 49.1476 166.178 49.375 164.681 49.375C162.936 49.3749 161.603 48.9211 160.704 48.4639C160.256 48.2356 159.915 48.0064 159.686 47.833C159.571 47.7464 159.483 47.6731 159.424 47.6211C159.394 47.5952 159.371 47.5743 159.355 47.5596C159.348 47.5524 159.341 47.5462 159.337 47.542L159.33 47.5352V47.5342H159.329C159.236 47.4405 159.231 47.2893 159.319 47.1904L160.916 45.3965L160.982 45.3438C161.055 45.3039 161.145 45.3015 161.221 45.3418L161.222 45.3428L161.243 45.3535C161.258 45.3613 161.28 45.3732 161.308 45.3877C161.364 45.4171 161.446 45.4597 161.546 45.5107C161.746 45.613 162.02 45.7499 162.314 45.8896C162.609 46.0297 162.923 46.1723 163.202 46.2842C163.488 46.3987 163.718 46.4725 163.854 46.4912L164.281 46.5479C164.717 46.6018 165.168 46.6409 165.549 46.6094C165.803 46.5883 166.001 46.5375 166.136 46.458C166.26 46.385 166.332 46.2881 166.354 46.1426C166.37 46.0381 166.349 45.9589 166.292 45.8818C166.227 45.7949 166.107 45.6991 165.903 45.5967C165.493 45.3902 164.841 45.2008 163.927 44.9668H163.925C162.216 44.5175 161.128 44.1407 160.477 43.5898C159.792 43.0105 159.616 42.266 159.616 41.2158C159.616 40.0819 160.252 39.2396 161.202 38.6934C162.145 38.1515 163.413 37.8887 164.747 37.8887ZM75.0537 37.8828C76.0143 37.8829 77.1573 38.1088 78.0654 38.8027C78.9853 39.5058 79.6318 40.6646 79.6318 42.4531C79.6317 43.995 78.7695 44.9331 77.8604 45.4824C76.96 46.0264 75.9945 46.2043 75.7051 46.2432H75.7031C75.2364 46.3024 74.3153 46.3021 73.5303 46.2881C73.1337 46.281 72.7645 46.2696 72.4951 46.2607C72.4287 46.2586 72.3678 46.2558 72.3145 46.2539V49.1191C72.3144 49.257 72.2023 49.369 72.0645 49.3691H68.5684C68.4303 49.3691 68.3185 49.2571 68.3184 49.1191V39.0566C68.3184 38.5107 68.5529 38.1967 68.8223 38.0342C68.9488 37.9579 69.0734 37.9208 69.165 37.9023C69.2111 37.8931 69.2504 37.8882 69.2793 37.8857C69.2937 37.8845 69.3063 37.8832 69.3154 37.8828H75.0537ZM90.9521 37.8828C91.0902 37.8829 91.2021 37.9948 91.2021 38.1328V40.7715C91.202 40.9094 91.0901 41.0214 90.9521 41.0215H84.2461V42.2031H90.2969C90.4349 42.2032 90.5469 42.3151 90.5469 42.4531V44.7861C90.5466 44.9239 90.4347 45.0361 90.2969 45.0361H84.2461V46.2305H90.9521C91.0902 46.2305 91.2021 46.3424 91.2021 46.4805V49.1191C91.202 49.2571 91.0901 49.3691 90.9521 49.3691H81.0811C80.943 49.3691 80.8312 49.2571 80.8311 49.1191V38.1328C80.8311 37.9947 80.943 37.8828 81.0811 37.8828H90.9521ZM103.141 37.8828C103.279 37.883 103.391 37.9948 103.391 38.1328V40.7715C103.391 40.9094 103.278 41.0213 103.141 41.0215H99.71V49.1191C99.7099 49.2571 99.5979 49.3691 99.46 49.3691H95.9414C95.8035 49.369 95.6915 49.257 95.6914 49.1191V41.0215H92.2607C92.1229 41.0213 92.0108 40.9094 92.0107 40.7715V38.1328C92.0107 37.9949 92.1228 37.883 92.2607 37.8828H103.141ZM135.325 37.8828C135.405 37.8828 135.481 37.9213 135.528 37.9863L139.963 44.1494V38.1328C139.963 37.9948 140.075 37.883 140.213 37.8828H143.444C143.582 37.8828 143.694 37.9948 143.694 38.1328V49.1191C143.694 49.2571 143.582 49.3691 143.444 49.3691H139.94C139.86 49.369 139.785 49.3298 139.738 49.2646L135.34 43.1543V49.1191C135.34 49.2571 135.228 49.3691 135.09 49.3691H131.858C131.72 49.3691 131.608 49.2571 131.608 49.1191V38.1328C131.608 37.9947 131.72 37.8828 131.858 37.8828H135.325ZM153.342 37.8926C153.409 37.9125 153.466 37.961 153.497 38.0264L158.687 49.0127C158.723 49.09 158.718 49.1808 158.672 49.2529C158.626 49.3251 158.546 49.3689 158.461 49.3691H155.332C155.236 49.3691 155.148 49.3128 155.106 49.2256L154.225 47.3623H149.188L148.308 49.2256C148.266 49.3127 148.178 49.3688 148.082 49.3691H144.953C144.868 49.3691 144.788 49.325 144.742 49.2529C144.696 49.1806 144.691 49.0901 144.728 49.0127L149.917 38.0264L149.956 37.9668C150.003 37.9144 150.07 37.8828 150.143 37.8828H153.271L153.342 37.8926ZM123.458 40.9082C121.753 40.9082 120.417 42.1489 120.417 43.6289C120.417 45.1089 121.753 46.3506 123.458 46.3506C125.162 46.3504 126.498 45.1088 126.498 43.6289C126.498 42.149 125.162 40.9084 123.458 40.9082ZM150.492 44.6152H152.929L151.71 42.0342L150.492 44.6152ZM110.217 40.8438C109.753 40.7922 109.284 40.8074 108.929 40.8359C108.779 40.848 108.65 40.8625 108.552 40.875V43.2842C108.649 43.2934 108.776 43.3051 108.923 43.3135C109.28 43.3337 109.752 43.3417 110.22 43.2949C110.693 43.2476 111.138 43.1468 111.457 42.9648C111.764 42.7898 111.937 42.5527 111.938 42.207C111.938 41.7366 111.74 41.4358 111.439 41.2295C111.124 41.0135 110.685 40.8958 110.217 40.8438ZM74.1201 40.8369C73.656 40.7854 73.1874 40.8006 72.832 40.8291C72.6821 40.8412 72.5532 40.8556 72.4551 40.8682V43.2773C72.5528 43.2866 72.6794 43.2983 72.8262 43.3066C73.1832 43.3269 73.655 43.3349 74.123 43.2881C74.5961 43.2407 75.0412 43.14 75.3604 42.958C75.6671 42.783 75.8418 42.5458 75.8418 42.2002C75.8418 41.7299 75.6433 41.4289 75.3428 41.2227C75.0277 41.0066 74.5888 40.889 74.1201 40.8369Z" fill="#00AF9B"/>
<path fill-rule="evenodd" clip-rule="evenodd" d="M207.186 37.9668C210.015 37.967 212.084 39.7099 212.084 41.7148C212.084 42.4586 211.81 43.0534 211.278 43.5039C210.952 43.7806 210.534 43.9973 210.036 44.167L211.571 47.9131C211.899 48.7144 211.231 49.4939 210.391 49.4941C209.944 49.494 209.521 49.2659 209.295 48.9023L209.211 48.7383L207.517 44.6309C207.439 44.6379 207.359 44.6452 207.278 44.6523L206.825 44.6826C206.107 44.7108 205.512 44.6962 205.007 44.6445V48.3193C205.007 48.9816 204.414 49.4832 203.746 49.4834H203.573C202.905 49.4833 202.313 48.9817 202.312 48.3193V40.5693L202.33 40.3193C202.356 40.0712 202.41 39.8261 202.523 39.5781C202.675 39.2476 202.922 38.93 203.312 38.5957L203.406 38.5225C203.636 38.3589 203.935 38.2487 204.244 38.1719C204.604 38.0827 205.007 38.0308 205.395 38.001C206.168 37.9416 206.919 37.9668 207.186 37.9668ZM181.877 37.8545L181.876 37.8555C182.668 37.8557 183.432 38.391 183.433 39.207C183.433 39.991 182.74 40.5794 181.946 40.6016C181.939 40.6022 181.932 40.6044 181.925 40.6045H181.9L181.897 40.6035L178.402 40.5732V42.2764H181.456C182.223 42.2765 182.889 42.8444 182.89 43.5957C182.89 44.3473 182.223 44.9149 181.456 44.915H178.402V47.9287C178.402 48.8139 177.625 49.4813 176.71 49.4814C175.794 49.4814 175.018 48.8016 175.018 47.9287V39.3633C175.018 38.9915 175.081 38.5961 175.346 38.2939C175.616 37.9861 176.047 37.8272 176.658 37.8213H176.699L181.877 37.8545ZM226.306 37.8096C226.919 37.8096 227.678 37.8426 228.284 38.1846C228.594 38.3595 228.863 38.6146 229.052 38.9785C229.24 39.34 229.343 39.7958 229.343 40.3652V48.3809L229.093 48.374L229.342 48.3809V48.3896C229.342 48.3934 229.341 48.3981 229.341 48.4033C229.34 48.4142 229.338 48.4286 229.336 48.4453C229.331 48.479 229.322 48.5245 229.307 48.5771C229.275 48.6827 229.215 48.8205 229.101 48.957C228.865 49.2386 228.438 49.4697 227.699 49.4697C227.289 49.4697 226.954 49.3844 226.722 49.1768C226.484 48.9637 226.401 48.6658 226.401 48.3516V41.2002C226.401 41.0751 226.373 40.9839 226.334 40.9307C226.314 40.9029 226.283 40.8772 226.229 40.8623C226.205 40.9061 226.174 40.9671 226.138 41.0469C226.043 41.2569 225.926 41.563 225.794 41.9375C225.529 42.6851 225.211 43.6847 224.904 44.6875C224.597 45.6896 224.301 46.6922 224.083 47.4443C223.974 47.8204 223.884 48.1342 223.821 48.3535C223.79 48.4628 223.766 48.5488 223.749 48.6074C223.741 48.6367 223.734 48.6597 223.729 48.6748C223.728 48.6803 223.727 48.6849 223.726 48.6885V48.6895L223.725 48.6914C223.724 48.6928 223.724 48.6946 223.724 48.6963C223.723 48.6998 223.722 48.7044 223.721 48.709C223.718 48.7181 223.714 48.7292 223.709 48.7422C223.699 48.7684 223.685 48.8024 223.663 48.8408C223.62 48.9182 223.55 49.0139 223.439 49.1074C223.215 49.297 222.847 49.4577 222.255 49.4697H222.198C221.611 49.4636 221.243 49.3055 221.018 49.1182C220.907 49.0259 220.835 48.9309 220.791 48.8545C220.769 48.8168 220.754 48.7836 220.744 48.7578C220.739 48.7451 220.735 48.7335 220.732 48.7246C220.731 48.7203 220.729 48.7162 220.729 48.7129C220.728 48.7113 220.727 48.7094 220.727 48.708C220.726 48.707 220.726 48.705 220.726 48.7031C220.725 48.6993 220.723 48.6937 220.721 48.6865C220.716 48.6714 220.711 48.6484 220.702 48.6191C220.685 48.5605 220.66 48.4746 220.629 48.3652C220.566 48.1459 220.475 47.8321 220.365 47.4561C220.146 46.7039 219.85 45.7014 219.542 44.6992C219.234 43.6962 218.915 42.696 218.651 41.9482C218.519 41.5735 218.402 41.2669 218.309 41.0566C218.274 40.9785 218.243 40.9187 218.219 40.875C218.172 40.8901 218.141 40.9149 218.12 40.9434C218.079 40.9983 218.05 41.0908 218.05 41.2119V48.3623C218.05 48.6767 217.967 48.9744 217.729 49.1875C217.497 49.3949 217.162 49.4814 216.752 49.4814C216.014 49.4814 215.586 49.2502 215.351 48.9688C215.236 48.8324 215.176 48.6943 215.145 48.5889C215.129 48.5362 215.119 48.4907 215.114 48.457C215.112 48.4402 215.111 48.4259 215.11 48.415C215.11 48.4098 215.11 48.4051 215.109 48.4014C215.109 48.3995 215.108 48.397 215.108 48.3955V40.376C215.108 39.8067 215.211 39.3507 215.398 38.9893C215.587 38.6254 215.856 38.3703 216.166 38.1953C216.772 37.8532 217.531 37.8203 218.145 37.8203C219.132 37.8203 219.721 38.3751 220.05 38.9082C220.213 39.1727 220.315 39.4357 220.377 39.6309C220.408 39.7286 220.429 39.8106 220.442 39.8691C220.449 39.8984 220.454 39.9227 220.457 39.9395C220.457 39.9418 220.458 39.9442 220.458 39.9463L222.226 45.7148L223.991 39.9502C223.992 39.947 223.992 39.9434 223.993 39.9395C223.996 39.9227 224.002 39.8984 224.009 39.8691C224.022 39.8106 224.043 39.7286 224.074 39.6309C224.136 39.4357 224.238 39.1727 224.401 38.9082C224.722 38.3895 225.287 37.8529 226.228 37.8242C226.252 37.816 226.278 37.8097 226.306 37.8096ZM241.285 37.9541C242.07 37.9541 242.491 38.2325 242.69 38.5811C242.784 38.7454 242.818 38.9082 242.829 39.0273C242.835 39.0872 242.835 39.1379 242.833 39.1748C242.832 39.1897 242.831 39.2025 242.83 39.2129V44.9541C242.83 46.0962 242.472 47.2328 241.65 48.085C240.826 48.9398 239.563 49.4814 237.809 49.4814C236.054 49.4814 234.828 48.9392 234.043 48.0801C233.262 47.2252 232.947 46.0886 232.947 44.9541V39.2129C232.946 39.2025 232.945 39.1897 232.944 39.1748C232.943 39.1379 232.943 39.0871 232.948 39.0273C232.959 38.9083 232.993 38.7453 233.087 38.5811C233.286 38.2324 233.708 37.9542 234.492 37.9541C234.839 37.9541 235.113 38.0231 235.325 38.1426C235.538 38.263 235.674 38.4272 235.759 38.5908C235.842 38.7519 235.873 38.91 235.885 39.0254C235.89 39.0837 235.891 39.1331 235.891 39.1689C235.89 39.184 235.889 39.1968 235.889 39.207V44.8984C235.889 45.4281 236.014 45.8088 236.188 46.085C236.362 46.3618 236.595 46.5484 236.834 46.6748C237.074 46.8018 237.318 46.8668 237.503 46.8994C237.594 46.9155 237.671 46.9238 237.723 46.9277C237.748 46.9296 237.768 46.9302 237.78 46.9307C237.786 46.9309 237.791 46.9315 237.794 46.9316H237.799C237.802 46.9316 237.808 46.9309 237.814 46.9307C237.829 46.9302 237.851 46.9297 237.879 46.9277C237.936 46.9237 238.02 46.9158 238.12 46.8994C238.322 46.8664 238.589 46.8005 238.852 46.6719C239.113 46.5436 239.367 46.3551 239.556 46.0781C239.743 45.8028 239.876 45.4244 239.876 44.8984V39.207C239.875 39.1973 239.874 39.1855 239.874 39.1719C239.873 39.1361 239.873 39.0866 239.878 39.0283C239.888 38.9127 239.918 38.7536 240.001 38.5918C240.085 38.4274 240.222 38.2631 240.436 38.1426C240.648 38.0232 240.923 37.9542 241.272 37.9541H241.285ZM248.056 37.9541C248.859 37.9544 249.562 38.5552 249.562 39.3398V46.375H252.777C253.692 46.3753 254.47 47.0426 254.47 47.9277C254.47 48.8129 253.692 49.4812 252.777 49.4814H248.056C247.252 49.4814 246.548 48.8798 246.548 48.0947V39.3398C246.548 38.555 247.252 37.9541 248.056 37.9541ZM263.231 37.9434C263.808 37.9434 264.341 38.0511 264.747 38.2354C265.116 38.4026 265.439 38.6649 265.521 39.0186C265.53 39.0325 265.539 39.0489 265.549 39.0645C265.556 39.076 265.563 39.0872 265.567 39.0947L265.575 39.1064L265.6 39.1572L268.67 47.9014C268.684 47.9414 268.686 47.9838 268.68 48.0244C268.764 48.3859 268.66 48.7383 268.437 49.0029C268.19 49.2954 267.801 49.4814 267.361 49.4814C266.795 49.4813 266.254 49.1536 266.077 48.6348L265.174 46.0615H261.227L260.323 48.6348C260.146 49.1537 259.606 49.4814 259.039 49.4814C258.178 49.4811 257.459 48.7194 257.757 47.8984L260.825 39.1572C260.859 39.0539 260.918 38.9614 260.968 38.8916C261.102 38.5794 261.425 38.3487 261.794 38.1982C262.191 38.0366 262.693 37.9434 263.231 37.9434ZM281.038 37.8555C281.333 37.8312 281.602 37.9007 281.871 38.0586L281.987 38.1318L282.015 38.1533C282.026 38.1637 282.035 38.1763 282.044 38.1875C282.411 38.4088 282.676 38.7845 282.676 39.2402V48.1953C282.676 48.9244 282.021 49.4812 281.279 49.4814C280.539 49.4814 279.883 48.9373 279.883 48.1953V41.0771L279.03 41.5693C278.56 41.8585 278.166 41.9709 277.832 41.959C277.493 41.9467 277.246 41.8076 277.072 41.6572C277.053 41.6403 277.036 41.6208 277.022 41.5996C276.78 41.3694 276.657 41.0798 276.683 40.7773C276.71 40.4528 276.903 40.1599 277.202 39.9492C277.408 39.7999 278.113 39.3669 278.753 38.9785C279.078 38.7814 279.391 38.5923 279.622 38.4531C279.738 38.3836 279.834 38.326 279.9 38.2861C279.934 38.2663 279.96 38.2508 279.978 38.2402C279.986 38.235 279.994 38.2312 279.998 38.2285C280 38.2273 280.002 38.2263 280.003 38.2256L280.005 38.2236L280.015 38.2178C280.385 38.0194 280.715 37.8822 281.038 37.8555ZM300.686 38.001C301.467 38.013 302.144 38.5975 302.145 39.3633C302.144 40.1369 301.452 40.7264 300.661 40.7266H298.594V48.1953C298.594 48.9245 297.939 49.4812 297.197 49.4814C296.457 49.4814 295.801 48.9375 295.801 48.1953V40.7266H293.732C292.941 40.7264 292.25 40.1369 292.25 39.3633C292.25 38.5896 292.941 37.9992 293.732 37.999H300.674L300.686 38.001ZM312.017 37.9541C312.833 37.9543 313.549 38.5663 313.549 39.3623C313.549 40.1584 312.833 40.7703 312.017 40.7705H307.878V42.543H311.733C312.414 42.5431 313.007 43.0442 313.007 43.7178C313.007 44.3912 312.414 44.8914 311.733 44.8916H307.878V46.6641H312.017C312.833 46.6642 313.549 47.2763 313.549 48.0723C313.549 48.8684 312.833 49.4813 312.017 49.4814H306.235C305.359 49.4814 304.592 48.8369 304.592 47.9727V39.4629C304.592 38.6124 305.344 37.9541 306.235 37.9541H312.017ZM322.495 37.9434C323.072 37.9434 323.604 38.0511 324.011 38.2354C324.379 38.4026 324.702 38.6649 324.785 39.0186C324.793 39.0325 324.803 39.0489 324.812 39.0645C324.82 39.076 324.826 39.0872 324.831 39.0947L324.839 39.1064L324.863 39.1572L327.934 47.9014C327.948 47.9414 327.95 47.9838 327.943 48.0244C328.028 48.3859 327.923 48.7383 327.7 49.0029C327.453 49.2954 327.065 49.4814 326.625 49.4814C326.058 49.4814 325.518 49.1536 325.341 48.6348L324.438 46.0615H320.49L319.587 48.6348C319.41 49.1537 318.87 49.4814 318.303 49.4814C317.441 49.4811 316.723 48.7194 317.021 47.8984L320.089 39.1572C320.123 39.0539 320.182 38.9614 320.231 38.8916C320.366 38.5794 320.689 38.3487 321.058 38.1982C321.454 38.0366 321.957 37.9434 322.495 37.9434ZM341.963 37.8096C342.577 37.8096 343.336 37.8426 343.941 38.1846C344.251 38.3595 344.52 38.6146 344.709 38.9785C344.897 39.34 345 39.7958 345 40.3652V48.3809L344.75 48.374L344.999 48.3809V48.3896C344.999 48.3934 344.998 48.3981 344.998 48.4033C344.997 48.4142 344.996 48.4286 344.993 48.4453C344.988 48.479 344.98 48.5245 344.964 48.5771C344.932 48.6827 344.872 48.8205 344.758 48.957C344.522 49.2386 344.095 49.4697 343.356 49.4697C342.946 49.4697 342.611 49.3844 342.379 49.1768C342.141 48.9637 342.059 48.6658 342.059 48.3516V41.2002C342.059 41.0751 342.03 40.9839 341.991 40.9307C341.971 40.9029 341.94 40.8772 341.887 40.8623C341.862 40.9061 341.831 40.9671 341.795 41.0469C341.701 41.2569 341.584 41.563 341.451 41.9375C341.187 42.6851 340.869 43.6847 340.562 44.6875C340.255 45.6896 339.959 46.6922 339.74 47.4443C339.631 47.8204 339.541 48.1342 339.479 48.3535C339.447 48.4628 339.423 48.5488 339.406 48.6074C339.398 48.6367 339.391 48.6597 339.387 48.6748C339.385 48.6803 339.384 48.6849 339.383 48.6885V48.6895L339.382 48.6914C339.381 48.6928 339.381 48.6946 339.381 48.6963C339.38 48.6998 339.379 48.7044 339.378 48.709C339.375 48.7181 339.371 48.7292 339.366 48.7422C339.356 48.7684 339.342 48.8024 339.32 48.8408C339.277 48.9182 339.207 49.0139 339.097 49.1074C338.873 49.297 338.505 49.4577 337.912 49.4697H337.855C337.268 49.4637 336.9 49.3055 336.675 49.1182C336.564 49.0259 336.492 48.9309 336.448 48.8545C336.427 48.8168 336.412 48.7836 336.401 48.7578C336.396 48.7451 336.393 48.7335 336.39 48.7246C336.388 48.7203 336.387 48.7162 336.386 48.7129C336.385 48.7113 336.384 48.7094 336.384 48.708C336.384 48.707 336.383 48.705 336.383 48.7031C336.382 48.6993 336.38 48.6938 336.378 48.6865C336.374 48.6714 336.368 48.6484 336.359 48.6191C336.343 48.5605 336.318 48.4746 336.286 48.3652C336.223 48.1459 336.132 47.8321 336.022 47.4561C335.803 46.7039 335.507 45.7014 335.199 44.6992C334.891 43.6962 334.573 42.6961 334.309 41.9482C334.176 41.5735 334.059 41.2669 333.966 41.0566C333.931 40.9785 333.9 40.9187 333.876 40.875C333.829 40.8901 333.799 40.9149 333.777 40.9434C333.736 40.9983 333.707 41.0908 333.707 41.2119V48.3623C333.707 48.6767 333.624 48.9744 333.386 49.1875C333.154 49.395 332.82 49.4814 332.409 49.4814C331.671 49.4814 331.244 49.2502 331.008 48.9688C330.894 48.8324 330.833 48.6944 330.802 48.5889C330.786 48.5362 330.776 48.4907 330.771 48.457C330.769 48.4402 330.768 48.4259 330.768 48.415C330.767 48.4098 330.767 48.4051 330.767 48.4014C330.766 48.3995 330.766 48.397 330.766 48.3955V40.376C330.766 39.8067 330.868 39.3507 331.056 38.9893C331.245 38.6254 331.514 38.3703 331.823 38.1953C332.429 37.8532 333.188 37.8203 333.802 37.8203C334.79 37.8203 335.378 38.3751 335.707 38.9082C335.87 39.1727 335.973 39.4357 336.034 39.6309C336.065 39.7286 336.086 39.8106 336.1 39.8691C336.106 39.8984 336.111 39.9227 336.114 39.9395C336.115 39.9418 336.115 39.9442 336.115 39.9463L337.883 45.7148L339.648 39.9502C339.649 39.947 339.65 39.9434 339.65 39.9395C339.654 39.9227 339.659 39.8985 339.666 39.8691C339.679 39.8106 339.701 39.7286 339.731 39.6309C339.793 39.4357 339.895 39.1727 340.059 38.9082C340.379 38.3895 340.944 37.8528 341.885 37.8242C341.909 37.816 341.935 37.8097 341.963 37.8096ZM192.467 37.7646C195.995 37.7647 198.893 40.3482 198.894 43.5947C198.893 46.8412 195.995 49.4247 192.467 49.4248C188.938 49.4248 186.04 46.8413 186.04 43.5947C186.04 40.3482 188.938 37.7647 192.467 37.7646ZM192.467 40.3359C190.398 40.3359 188.772 41.8404 188.771 43.6504C188.772 45.4604 190.398 46.9648 192.467 46.9648C194.535 46.9647 196.162 45.4604 196.162 43.6504C196.162 41.8404 194.535 40.336 192.467 40.3359ZM261.98 43.9805H264.469L263.227 40.4258H263.224L261.98 43.9805ZM321.231 43.9805H323.721L322.478 40.4258H322.475L321.231 43.9805ZM206.942 40.2646C206.414 40.2426 205.877 40.2922 205.471 40.3486C205.276 40.3757 205.112 40.4037 204.995 40.4258V42.5732C205.108 42.5976 205.266 42.6297 205.454 42.6611C205.847 42.7268 206.367 42.7908 206.886 42.7861C207.41 42.7814 207.905 42.7069 208.265 42.5186C208.606 42.3396 208.829 42.0591 208.847 41.5938C208.856 41.3344 208.804 41.1346 208.717 40.9785C208.629 40.8218 208.496 40.6945 208.324 40.5918C207.974 40.3822 207.477 40.287 206.942 40.2646ZM284.93 38.3213C285.527 38.3213 286.056 38.7643 286.056 39.3623C286.056 39.9603 285.527 40.4033 284.93 40.4033C284.333 40.4031 283.805 39.9601 283.805 39.3623C283.805 38.7645 284.333 38.3215 284.93 38.3213Z" fill="white"/>
</svg>
