<svg width="160" height="44" viewBox="0 0 160 44" fill="none" xmlns="http://www.w3.org/2000/svg">
<g clip-path="url(#clip0_982_468)">
<path d="M19.5117 2.09912C30.2915 2.09912 39.0244 10.8358 39.0244 21.6108C39.0244 32.3858 30.2867 41.1226 19.5117 41.1226C8.73692 41.1223 2.26834e-05 32.3857 0 21.6108C0 10.836 8.73214 2.09936 19.5117 2.09912ZM5.5459 30.8862C8.54952 35.3998 13.6823 38.3753 19.5117 38.3755C25.3385 38.3755 30.4719 35.3991 33.4766 30.8853L19.5293 25.5259L5.5459 30.8862ZM22.9941 18.5669L34.9551 28.1421C35.8056 26.1346 36.2773 23.9277 36.2773 21.6108C36.2773 12.9152 29.6543 5.76166 21.1738 4.92725L22.9941 18.5669ZM17.8359 4.92822C9.36244 5.76937 2.74707 12.9201 2.74707 21.6108C2.74708 23.9264 3.21714 26.1325 4.06641 28.1392L15.8594 18.5698L17.8359 4.92822Z" fill="white"/>
</g>
<g clip-path="url(#clip1_982_468)">
<path d="M116.949 0C116.999 9.57372e-05 117.047 0.0148601 117.089 0.0419922L124.784 5.09277L132.48 0.0419922L132.547 0.0107422C132.57 0.00368372 132.595 4.32215e-05 132.62 0H136.483C136.624 5.97075e-05 136.738 0.114087 136.738 0.254883V10.542C136.738 10.6827 136.624 10.7968 136.483 10.7969H132.62C132.48 10.7966 132.365 10.6825 132.365 10.542V4.02637L126.565 7.91211C126.524 7.94014 126.473 7.95603 126.423 7.95605H123.146C123.096 7.95605 123.047 7.94007 123.005 7.91211L117.204 4.02539V10.5498C117.204 10.6903 117.09 10.8044 116.949 10.8047H113.086C112.945 10.8047 112.831 10.6905 112.831 10.5498V0.254883C112.831 0.11405 112.945 0 113.086 0H116.949ZM69.9248 0.00488281C70.0195 0.00507363 70.1063 0.0587185 70.1484 0.143555C70.1906 0.228686 70.1806 0.330695 70.123 0.40625L62.2715 10.7012C62.2242 10.7631 62.1502 10.7998 62.0723 10.7998H52.543C52.4479 10.7998 52.3615 10.7453 52.3193 10.6602C52.2772 10.575 52.2861 10.473 52.3438 10.3975L60.1963 0.103516L60.2363 0.0615234C60.2805 0.0253711 60.3363 0.00491395 60.3945 0.00488281H69.9248ZM76.2773 0.00488281C76.3723 0.00492407 76.4598 0.0585299 76.502 0.143555C76.544 0.228624 76.534 0.33073 76.4766 0.40625L68.6172 10.7012C68.5699 10.7631 68.4959 10.7998 68.418 10.7998H63.5713C63.4762 10.7998 63.3898 10.7453 63.3477 10.6602C63.3055 10.5749 63.3154 10.473 63.373 10.3975L71.2324 0.103516L71.2725 0.0615234C71.3166 0.0253711 71.3724 0.00491229 71.4307 0.00488281H76.2773ZM81.999 0.00488281C82.0938 0.00494041 82.1804 0.0586946 82.2227 0.143555C82.2647 0.228574 82.2556 0.330726 82.1982 0.40625L74.3457 10.7012C74.2985 10.763 74.2252 10.7997 74.1475 10.7998H69.9717C69.8766 10.7998 69.7902 10.7453 69.748 10.6602C69.7059 10.5749 69.7157 10.473 69.7734 10.3975L77.6328 0.103516L77.6729 0.0615234C77.717 0.0253712 77.7728 0.0049124 77.8311 0.00488281H81.999ZM87.1582 0.00488281C87.253 0.00499356 87.3396 0.0587058 87.3818 0.143555C87.4239 0.228719 87.414 0.330704 87.3564 0.40625L79.4971 10.7012C79.4499 10.763 79.3766 10.7997 79.2988 10.7998H75.9893C75.8942 10.7998 75.8078 10.7453 75.7656 10.6602C75.7235 10.575 75.7324 10.473 75.79 10.3975L83.6426 0.103516L83.6826 0.0615234C83.7268 0.0253716 83.7826 0.00491329 83.8408 0.00488281H87.1582ZM92.0361 0.00488281C92.1308 0.00510189 92.2176 0.0587238 92.2598 0.143555C92.3019 0.228673 92.2919 0.330698 92.2344 0.40625L84.3828 10.7012C84.3355 10.7631 84.2615 10.7998 84.1836 10.7998H81.5693C81.4743 10.7998 81.3879 10.7453 81.3457 10.6602C81.3035 10.5749 81.3134 10.473 81.3711 10.3975L89.2305 0.103516L89.2705 0.0615234C89.3147 0.0253715 89.3705 0.00491196 89.4287 0.00488281H92.0361ZM111.118 0.00488281C111.256 0.00494258 111.368 0.116848 111.368 0.254883V10.5498C111.368 10.6877 111.256 10.7997 111.118 10.7998H107.544C107.406 10.7998 107.294 10.6877 107.294 10.5498V8.35645H93.3701L91.5791 10.7012C91.5318 10.7631 91.4578 10.7998 91.3799 10.7998H86.4785C86.3835 10.7998 86.2971 10.7453 86.2549 10.6602C86.2127 10.575 86.2217 10.473 86.2793 10.3975L94.1318 0.103516L94.1719 0.0615234C94.2161 0.0253713 94.2718 0.00491417 94.3301 0.00488281H111.118ZM159.844 0.00488281C159.982 0.00494052 160.094 0.116847 160.094 0.254883V2.62012C160.094 2.75799 159.982 2.87006 159.844 2.87012H142.158V7.42773H155.715V6.68652H148.542C148.404 6.6863 148.292 6.57437 148.292 6.43652V4.18066C148.292 4.04276 148.404 3.93088 148.542 3.93066H159.844C159.982 3.93072 160.094 4.04266 160.094 4.18066V10.5498C160.094 10.6877 159.982 10.7997 159.844 10.7998H137.975C137.837 10.7998 137.725 10.6877 137.725 10.5498V0.254883C137.725 0.116812 137.837 0.00488281 137.975 0.00488281H159.844ZM95.8105 5.14844H107.294V2.79199H97.6143L95.8105 5.14844Z" fill="white"/>
<path d="M110.743 15.8047C114.62 15.8047 117.767 18.9526 117.768 22.8291C117.768 26.7057 114.62 29.8535 110.743 29.8535C106.867 29.8534 103.719 26.7056 103.719 22.8291C103.719 18.9529 106.859 15.8048 110.743 15.8047ZM97.71 16.125C98.7318 16.125 99.9431 16.3924 100.903 17.2051C101.872 18.0246 102.55 19.3687 102.55 21.4482C102.55 23.4748 101.382 24.5938 100.292 25.1953L103.165 29.1289H103.163C103.22 29.1995 103.236 29.2948 103.201 29.3799C103.162 29.4731 103.072 29.5341 102.971 29.5342H98.8027C98.723 29.5342 98.6477 29.496 98.6006 29.4316L96.0264 25.9092C95.6425 25.9011 95.2861 25.8905 95.0176 25.8799C94.9328 25.8765 94.8565 25.872 94.791 25.8691V29.2764C94.7909 29.4143 94.679 29.5264 94.541 29.5264H90.834C90.696 29.5264 90.5841 29.4143 90.584 29.2764V17.46C90.584 16.8452 90.8198 16.4905 91.1006 16.3027C91.2338 16.2137 91.3666 16.1694 91.4648 16.1475C91.514 16.1365 91.556 16.1309 91.5869 16.1279C91.6022 16.1265 91.6152 16.1264 91.625 16.126C91.6298 16.1258 91.6344 16.1251 91.6377 16.125H97.71ZM154.521 16.1328C155.954 16.1328 157.132 16.5406 157.95 16.9473C158.36 17.1507 158.681 17.3549 158.9 17.5088C159.01 17.5856 159.095 17.6504 159.152 17.6963C159.181 17.7191 159.203 17.7371 159.219 17.75C159.226 17.7564 159.233 17.762 159.237 17.7656C159.239 17.7672 159.241 17.7685 159.242 17.7695L159.243 17.7715H159.244C159.346 17.8612 159.358 18.0162 159.271 18.1201L157.562 20.1572C157.479 20.2549 157.336 20.2751 157.23 20.2041H157.229C157.229 20.2038 157.229 20.2029 157.228 20.2021C157.225 20.2007 157.222 20.1984 157.217 20.1953C157.207 20.1889 157.192 20.1785 157.172 20.166C157.132 20.1409 157.071 20.1044 156.994 20.0605C156.839 19.9726 156.615 19.8554 156.345 19.7393C155.8 19.5055 155.081 19.2835 154.348 19.3018H154.347C153.755 19.3134 153.384 19.3863 153.166 19.5156C153.064 19.5762 152.997 19.6484 152.954 19.7344C152.91 19.823 152.882 19.942 152.882 20.1055C152.882 20.2032 152.93 20.3162 153.07 20.4463C153.212 20.5778 153.428 20.7076 153.71 20.8311C154.272 21.0774 155.035 21.2746 155.818 21.4297H155.819C156.344 21.5363 157.397 21.8729 158.325 22.5254C159.255 23.1794 160.094 24.1772 160.094 25.6006C160.094 26.9978 159.485 27.999 158.456 28.6377C157.443 29.2659 156.041 29.5341 154.451 29.5342C152.598 29.5342 151.184 29.0003 150.232 28.4639C149.757 28.1959 149.396 27.9276 149.153 27.7246C149.032 27.6232 148.94 27.5373 148.878 27.4766C148.847 27.4463 148.822 27.4224 148.806 27.4053C148.798 27.3969 148.792 27.3896 148.787 27.3848L148.779 27.377V27.376C148.697 27.285 148.692 27.1475 148.769 27.0518L150.463 24.9443L150.494 24.9111C150.574 24.8424 150.691 24.8307 150.784 24.8857H150.786C150.787 24.8863 150.788 24.8876 150.79 24.8887C150.794 24.891 150.8 24.8949 150.808 24.8994C150.823 24.9086 150.847 24.9222 150.877 24.9395C150.937 24.9741 151.024 25.024 151.13 25.084C151.342 25.2041 151.632 25.3651 151.944 25.5293C152.257 25.6939 152.589 25.8608 152.886 25.9922C153.114 26.0934 153.308 26.1672 153.45 26.207L153.575 26.2354L154.028 26.3018C154.49 26.3651 154.967 26.411 155.37 26.374C155.638 26.3494 155.847 26.2902 155.991 26.1963C156.125 26.1093 156.213 25.9858 156.24 25.792C156.259 25.6508 156.232 25.5414 156.164 25.4404C156.091 25.3314 155.959 25.2167 155.744 25.0967C155.309 24.854 154.618 24.6332 153.648 24.3584L153.647 24.3574C151.834 23.8293 150.682 23.3872 149.994 22.7432C149.28 22.0738 149.097 21.2189 149.097 19.9961C149.097 18.6961 149.753 17.7186 150.761 17.0771C151.76 16.4415 153.104 16.1329 154.521 16.1328ZM59.4189 16.125C60.4407 16.125 61.6521 16.3924 62.6123 17.2051C63.5806 18.0246 64.2588 19.3687 64.2588 21.4482C64.2587 23.2269 63.3617 24.3165 62.3975 24.9619C61.4435 25.6002 60.4191 25.8097 60.1113 25.8555H60.1094C59.6134 25.9251 58.6359 25.9247 57.8037 25.9082C57.383 25.8999 56.9917 25.8874 56.7061 25.877C56.6294 25.8742 56.5601 25.8705 56.5 25.8682V29.2764C56.4999 29.4143 56.388 29.5264 56.25 29.5264H52.543C52.405 29.5264 52.2931 29.4143 52.293 29.2764V17.46C52.293 16.8452 52.5288 16.4905 52.8096 16.3027C52.9428 16.2137 53.0756 16.1694 53.1738 16.1475C53.223 16.1365 53.2649 16.1309 53.2959 16.1279C53.3112 16.1265 53.3242 16.1264 53.334 16.126C53.3388 16.1258 53.3433 16.1251 53.3467 16.125H59.4189ZM76.2783 16.125C76.4162 16.1253 76.5283 16.2371 76.5283 16.375V19.4736C76.5281 19.6114 76.4161 19.7234 76.2783 19.7236H69.1523V21.1982H75.583C75.7211 21.1982 75.833 21.3102 75.833 21.4482V24.1875C75.8329 24.3255 75.721 24.4375 75.583 24.4375H69.1523V25.9277H76.2783C76.4161 25.928 76.5282 26.0399 76.5283 26.1777V29.2764C76.5282 29.4142 76.4161 29.5261 76.2783 29.5264H65.8115C65.6735 29.5264 65.5617 29.4143 65.5615 29.2764V16.375C65.5615 16.2369 65.6735 16.125 65.8115 16.125H76.2783ZM89.2021 16.125C89.3402 16.125 89.4521 16.2369 89.4521 16.375V19.4736C89.452 19.6115 89.3401 19.7236 89.2021 19.7236H85.5498V29.2764C85.5497 29.4143 85.4378 29.5264 85.2998 29.5264H81.5693C81.4314 29.5263 81.3195 29.4143 81.3193 29.2764V19.7236H77.667C77.529 19.7236 77.4172 19.6115 77.417 19.4736V16.375C77.417 16.2369 77.5289 16.125 77.667 16.125H89.2021ZM123.325 16.125C123.41 16.125 123.489 16.1683 123.535 16.2393L128.258 23.5078V16.375C128.258 16.237 128.37 16.1251 128.508 16.125H131.935C132.073 16.1252 132.185 16.237 132.185 16.375V29.2764C132.184 29.4142 132.072 29.5262 131.935 29.5264H128.219C128.135 29.5262 128.056 29.4836 128.01 29.4131L123.326 22.2061V29.2764C123.326 29.4142 123.214 29.5261 123.076 29.5264H119.649C119.511 29.5264 119.4 29.4143 119.399 29.2764V16.375C119.399 16.2369 119.511 16.125 119.649 16.125H123.325ZM142.354 16.125C142.454 16.125 142.545 16.1852 142.584 16.2773L148.086 29.1787C148.119 29.2558 148.111 29.3442 148.064 29.4141C148.018 29.4839 147.94 29.5263 147.856 29.5264H144.539C144.439 29.5264 144.349 29.4667 144.31 29.375L143.367 27.1689H138.023L137.081 29.375C137.042 29.4667 136.951 29.5262 136.852 29.5264H133.534C133.45 29.5264 133.371 29.484 133.325 29.4141C133.279 29.3442 133.272 29.2557 133.305 29.1787L138.807 16.2773C138.846 16.1854 138.936 16.1252 139.036 16.125H142.354ZM110.743 19.5908C108.954 19.5909 107.505 21.0395 107.505 22.8291C107.505 24.6188 108.954 26.0682 110.743 26.0684C112.533 26.0684 113.982 24.6188 113.982 22.8291C113.982 21.0395 112.533 19.5908 110.743 19.5908ZM139.368 24.0312H142.03L140.698 20.9062L139.368 24.0312ZM96.7041 19.5146C96.2128 19.4542 95.7163 19.4714 95.3398 19.5049C95.1722 19.5198 95.0297 19.5385 94.9238 19.5537V22.4658C95.0295 22.4771 95.1699 22.4916 95.334 22.502C95.7122 22.5257 96.2116 22.5354 96.707 22.4805C97.2073 22.425 97.6784 22.307 98.0176 22.0928C98.3429 21.8873 98.5448 21.597 98.5449 21.1592C98.5449 20.5807 98.323 20.2131 98 19.9678C97.6641 19.7127 97.1992 19.5756 96.7041 19.5146ZM58.4287 19.5068C57.9374 19.4464 57.441 19.4636 57.0645 19.4971C56.8968 19.512 56.7543 19.5306 56.6484 19.5459V22.458C56.7541 22.4693 56.8945 22.4838 57.0586 22.4941C57.4368 22.5179 57.9362 22.5275 58.4316 22.4727C58.9319 22.4172 59.403 22.2992 59.7422 22.085C60.0675 21.8795 60.2695 21.5892 60.2695 21.1514C60.2695 20.5729 60.0476 20.2053 59.7246 19.96C59.3887 19.7048 58.9238 19.5678 58.4287 19.5068Z" fill="#00AF9B"/>
<path d="M72.749 34.9941C74.5952 34.9941 75.9412 36.2541 75.9414 37.6943C75.9414 38.2279 75.7643 38.6639 75.4092 38.9971C75.2083 39.1855 74.9562 39.3329 74.6631 39.4512L75.6143 42.0176C75.8308 42.6024 75.3971 43.2207 74.7783 43.2207C74.4523 43.2207 74.1564 43.0375 74.001 42.7607L73.9434 42.6367L72.8926 39.8174L72.5254 39.8486C72.1152 39.8665 71.7655 39.8626 71.4619 39.835V42.3232C71.4618 42.8124 71.0605 43.2129 70.5713 43.2129H70.4619C69.9729 43.2127 69.5724 42.8123 69.5723 42.3232V36.8896L69.583 36.7119C69.5995 36.534 69.6351 36.3559 69.71 36.1748C69.8101 35.9327 69.974 35.7018 70.2275 35.4609L70.293 35.4043C70.4525 35.2784 70.6561 35.1972 70.8584 35.1416C71.0946 35.0768 71.3574 35.0397 71.6064 35.0186C72.1022 34.9764 72.5851 34.9941 72.749 34.9941ZM56.7285 34.916L56.7275 34.917C57.2872 34.9176 57.8036 35.3343 57.8037 35.9385C57.8037 36.5149 57.3375 36.9752 56.7705 36.9902C56.7663 36.9905 56.7621 36.9922 56.7578 36.9922H56.7422L56.7402 36.9912L54.6191 36.9707V38.0146H56.4609C57.0126 38.0146 57.4599 38.462 57.46 39.0137C57.46 39.5654 57.0127 40.0127 56.4609 40.0127H54.6191V42.0498C54.6191 42.6952 54.1014 43.2129 53.4561 43.2129C52.8093 43.2128 52.293 42.686 52.293 42.0498V36.0479C52.293 35.7849 52.3327 35.4899 52.5156 35.2588C52.7079 35.016 53.0133 34.897 53.4219 34.8926H53.4502L56.7285 34.916ZM84.8555 34.8848C85.2441 34.8848 85.7527 34.9066 86.1631 35.1631C86.5997 35.4362 86.8691 35.9344 86.8691 36.75V42.3682L86.6191 42.3623L86.8691 42.3691V42.376C86.869 42.3791 86.8685 42.3834 86.8682 42.3877C86.8675 42.3963 86.8669 42.4071 86.8652 42.4199C86.8619 42.4457 86.8554 42.4798 86.8447 42.5195C86.8233 42.5989 86.7826 42.7045 86.7031 42.8096C86.5355 43.0311 86.2342 43.2051 85.7373 43.2051C85.4613 43.2051 85.2195 43.1407 85.0488 42.9717C84.8775 42.8019 84.8243 42.5726 84.8242 42.3467V37.3359C84.8242 37.3205 84.8204 37.3062 84.8193 37.293C84.7636 37.4356 84.696 37.6327 84.6201 37.8701C84.453 38.3928 84.252 39.0924 84.0576 39.7949C83.8634 40.4967 83.6763 41.1987 83.5381 41.7256C83.469 41.989 83.4117 42.2087 83.3721 42.3623C83.3522 42.4391 83.3367 42.4999 83.3262 42.541L83.3115 42.5996C83.3112 42.6009 83.3107 42.6019 83.3105 42.6025C83.3099 42.6053 83.3095 42.6088 83.3086 42.6123C83.3066 42.6197 83.3033 42.6284 83.2998 42.6387C83.2927 42.6595 83.2827 42.6867 83.2676 42.7168C83.2372 42.7771 83.1875 42.8516 83.1094 42.9248C82.9487 43.0754 82.6907 43.1961 82.293 43.2051H82.2539C81.8592 43.2006 81.6012 43.0823 81.4395 42.9336C81.3608 42.8613 81.3104 42.7872 81.2793 42.7275C81.2638 42.6978 81.2535 42.671 81.2461 42.6504C81.2425 42.6402 81.2395 42.6314 81.2373 42.624C81.2362 42.6204 81.2351 42.6171 81.2344 42.6143L81.2334 42.6104C81.2332 42.6097 81.2327 42.6086 81.2324 42.6074L81.2178 42.5488C81.2072 42.5077 81.1918 42.4469 81.1719 42.3701C81.132 42.2165 81.0743 41.9967 81.0049 41.7334C80.866 41.2065 80.679 40.5045 80.4844 39.8027C80.2895 39.1 80.0877 38.3998 79.9209 37.877C79.8464 37.6434 79.7785 37.4498 79.7236 37.3076C79.7228 37.3189 79.7197 37.331 79.7197 37.3438V42.3545C79.7197 42.5804 79.6673 42.8097 79.4961 42.9795C79.3254 43.1486 79.0828 43.2129 78.8066 43.2129C78.31 43.2129 78.0094 43.0388 77.8418 42.8174C77.7623 42.7123 77.7206 42.6068 77.6992 42.5273C77.6885 42.4876 77.6831 42.4535 77.6797 42.4277C77.678 42.4149 77.6764 42.4041 77.6758 42.3955C77.6755 42.3912 77.675 42.3869 77.6748 42.3838V36.7578C77.6749 35.9419 77.945 35.4439 78.3818 35.1709C78.7921 34.9145 79.2999 34.8926 79.6885 34.8926C80.368 34.8926 80.7651 35.3174 80.9785 35.7002C81.0851 35.8914 81.1516 36.0802 81.1914 36.2197C81.2115 36.29 81.2246 36.3493 81.2334 36.3916C81.2369 36.4082 81.2392 36.4224 81.2412 36.4336L82.2715 40.1611L83.2988 36.4492C83.2992 36.447 83.3003 36.4441 83.3008 36.4414C83.3029 36.4292 83.3062 36.4124 83.3105 36.3916C83.3193 36.3493 83.3325 36.29 83.3525 36.2197C83.3924 36.0801 83.4597 35.8915 83.5664 35.7002C83.7724 35.3306 84.1489 34.9233 84.7861 34.8955C84.8082 34.8891 84.8313 34.8848 84.8555 34.8848ZM94.3379 34.9863C94.5977 34.9864 94.807 35.0363 94.9717 35.127C95.1382 35.2187 95.2455 35.3449 95.3115 35.4727C95.3761 35.5977 95.3989 35.7204 95.4062 35.8086C95.4099 35.853 95.4103 35.8912 95.4092 35.9189C95.4088 35.9289 95.4078 35.9379 95.4072 35.9453V39.9658C95.4072 40.7745 95.1783 41.5877 94.6436 42.2021C94.1034 42.8225 93.2749 43.2129 92.1367 43.2129C90.998 43.2129 90.1923 42.8219 89.6768 42.1973C89.168 41.5807 88.9678 40.7679 88.9678 39.9658V35.9453C88.9672 35.9379 88.9662 35.9289 88.9658 35.9189C88.9647 35.8912 88.9641 35.853 88.9678 35.8086C88.9751 35.7204 88.9979 35.5977 89.0625 35.4727C89.1286 35.3448 89.2366 35.2188 89.4033 35.127C89.5681 35.0363 89.7772 34.9863 90.0371 34.9863C90.2735 34.9863 90.4667 35.0385 90.6191 35.1338C90.7717 35.2292 90.8669 35.3576 90.9248 35.4814C90.9815 35.6031 91.0032 35.7217 91.0107 35.8066C91.0145 35.8496 91.0151 35.8864 91.0146 35.9131C91.0144 35.9226 91.0131 35.9314 91.0127 35.9385V39.9268C91.0128 40.639 91.3084 40.9568 91.5723 41.1113C91.7122 41.1932 91.8543 41.2356 91.9629 41.2568C92.0167 41.2673 92.0613 41.2719 92.0908 41.2744C92.1054 41.2756 92.1165 41.2761 92.123 41.2764H92.1367C92.1444 41.2761 92.1566 41.2757 92.1729 41.2744C92.2059 41.2719 92.2549 41.2666 92.3145 41.2559C92.4348 41.2341 92.5925 41.1912 92.7471 41.1074C92.9003 41.0243 93.0489 40.9017 93.1602 40.7207C93.271 40.5403 93.3535 40.2867 93.3535 39.9268V35.9385C93.3531 35.932 93.3528 35.9243 93.3525 35.916C93.3518 35.8893 93.3521 35.8526 93.3555 35.8096C93.3622 35.7244 93.3821 35.6047 93.4385 35.4824C93.496 35.3579 93.5917 35.2294 93.7451 35.1338C93.8981 35.0385 94.0923 34.9863 94.3301 34.9863H94.3379ZM98.623 34.9863C99.1981 34.9863 99.6688 35.4572 99.6689 36.0322V40.8867H101.612C102.258 40.8867 102.775 41.4045 102.775 42.0498C102.775 42.6951 102.258 43.2129 101.612 43.2129H98.623C98.0481 43.2128 97.5773 42.742 97.5771 42.167V36.0322C97.5773 35.4572 98.0481 34.9864 98.623 34.9863ZM108.23 34.9785C108.61 34.9785 108.964 35.0569 109.237 35.1943C109.483 35.3179 109.708 35.5157 109.769 35.7861C109.772 35.7934 109.777 35.8016 109.781 35.8096C109.786 35.8176 109.79 35.8249 109.793 35.8301C109.794 35.8326 109.796 35.8346 109.797 35.8359V35.8379H109.798L109.818 35.8867L111.762 42.0137C111.772 42.0454 111.773 42.0781 111.771 42.1104C111.89 42.684 111.437 43.2129 110.845 43.2129C110.437 43.2128 110.062 42.9523 109.942 42.5605V42.5596L109.39 40.8174H107.031L106.479 42.5596C106.359 42.9516 105.984 43.2129 105.576 43.2129C104.951 43.2126 104.48 42.6142 104.676 42.0127L106.618 35.8867C106.641 35.8107 106.679 35.7432 106.711 35.6924C106.806 35.4513 107.031 35.277 107.277 35.166C107.544 35.046 107.877 34.9785 108.23 34.9785ZM119.495 34.917C119.741 34.8946 119.957 34.9732 120.166 35.1299C120.175 35.1369 120.185 35.145 120.193 35.1533C120.199 35.1592 120.203 35.1668 120.208 35.1729C120.46 35.3448 120.633 35.628 120.633 35.9619V42.2373C120.633 42.7732 120.193 43.2128 119.657 43.2129C119.123 43.2129 118.682 42.7828 118.682 42.2373V37.4014L118.285 37.6553C117.98 37.8617 117.711 37.951 117.471 37.9414C117.223 37.9315 117.044 37.8183 116.924 37.7031C116.913 37.6925 116.905 37.6791 116.896 37.667C116.724 37.4889 116.638 37.2649 116.655 37.0342C116.674 36.7905 116.806 36.5684 117.011 36.4072L117.403 36.126C117.584 36.0016 117.799 35.8567 118.001 35.7207C118.206 35.5826 118.404 35.4501 118.551 35.3525C118.624 35.3038 118.685 35.2633 118.728 35.2354C118.748 35.2215 118.765 35.2105 118.776 35.2031C118.782 35.1995 118.786 35.1962 118.789 35.1943C118.79 35.1935 118.791 35.1928 118.792 35.1924L118.793 35.1914L118.804 35.1846C119.04 35.0445 119.266 34.9379 119.495 34.917ZM131.941 35.0186C132.502 35.0265 132.957 35.4856 132.957 36.0479C132.957 36.6151 132.494 37.078 131.927 37.0781H130.709V42.2373C130.709 42.7734 130.27 43.2129 129.733 43.2129C129.199 43.2129 128.758 42.783 128.758 42.2373V37.0781H127.54C126.973 37.078 126.51 36.6151 126.51 36.0479C126.51 35.4807 126.973 35.0177 127.54 35.0176H131.935L131.941 35.0186ZM139.114 34.9863C139.697 34.9863 140.177 35.465 140.177 36.0479C140.177 36.6308 139.697 37.1094 139.114 37.1094H136.586V38.2021H138.936C139.432 38.2023 139.833 38.6027 139.833 39.0996C139.833 39.5966 139.432 39.9969 138.936 39.9971H136.586V41.0898H139.114C139.697 41.0898 140.177 41.5685 140.177 42.1514C140.177 42.7343 139.697 43.2129 139.114 43.2129H135.454C134.834 43.2128 134.322 42.7122 134.322 42.0811V36.1182C134.322 35.4977 134.823 34.9864 135.454 34.9863H139.114ZM145.749 34.9785C146.128 34.9785 146.482 35.0569 146.756 35.1943C147.002 35.3179 147.226 35.5157 147.287 35.7861C147.291 35.7934 147.295 35.8016 147.3 35.8096C147.304 35.8176 147.309 35.8249 147.312 35.8301C147.313 35.8326 147.315 35.8346 147.315 35.8359V35.8379H147.316L147.337 35.8867L149.28 42.0137C149.29 42.0454 149.292 42.0781 149.289 42.1104C149.408 42.684 148.955 43.2129 148.363 43.2129C147.956 43.2128 147.581 42.9523 147.461 42.5605V42.5596L146.908 40.8174H144.55L143.997 42.5596C143.877 42.9516 143.503 43.2129 143.095 43.2129C142.469 43.2126 141.999 42.6142 142.194 42.0127L144.137 35.8867C144.159 35.8107 144.197 35.7432 144.229 35.6924C144.325 35.4513 144.55 35.277 144.796 35.166C145.062 35.046 145.395 34.9785 145.749 34.9785ZM158.072 34.8848C158.461 34.8848 158.97 34.9066 159.38 35.1631C159.816 35.4362 160.086 35.9344 160.086 36.75V42.3682L159.836 42.3623L160.086 42.3691V42.376C160.086 42.3791 160.085 42.3834 160.085 42.3877C160.084 42.3963 160.084 42.4071 160.082 42.4199C160.079 42.4457 160.072 42.4798 160.062 42.5195C160.04 42.5989 159.999 42.7045 159.92 42.8096C159.752 43.0311 159.451 43.2051 158.954 43.2051C158.678 43.2051 158.436 43.1407 158.266 42.9717C158.094 42.8019 158.041 42.5726 158.041 42.3467V37.3359C158.041 37.3205 158.037 37.3062 158.036 37.293C157.98 37.4356 157.913 37.6327 157.837 37.8701C157.67 38.3928 157.469 39.0924 157.274 39.7949C157.08 40.4967 156.893 41.1987 156.755 41.7256C156.686 41.989 156.629 42.2087 156.589 42.3623C156.569 42.4391 156.554 42.4999 156.543 42.541L156.528 42.5996C156.528 42.6009 156.528 42.6019 156.527 42.6025C156.527 42.6053 156.526 42.6088 156.525 42.6123C156.523 42.6197 156.52 42.6284 156.517 42.6387C156.51 42.6595 156.5 42.6867 156.484 42.7168C156.454 42.7771 156.404 42.8516 156.326 42.9248C156.165 43.0754 155.907 43.1961 155.51 43.2051H155.471C155.076 43.2006 154.818 43.0823 154.656 42.9336C154.578 42.8613 154.527 42.7872 154.496 42.7275C154.481 42.6978 154.47 42.671 154.463 42.6504C154.459 42.6402 154.456 42.6314 154.454 42.624C154.453 42.6204 154.452 42.6171 154.451 42.6143L154.45 42.6104C154.45 42.6097 154.45 42.6086 154.449 42.6074L154.435 42.5488C154.424 42.5077 154.409 42.4469 154.389 42.3701C154.349 42.2165 154.291 41.9967 154.222 41.7334C154.083 41.2065 153.896 40.5045 153.701 39.8027C153.506 39.1 153.304 38.3998 153.138 37.877C153.063 37.6434 152.995 37.4498 152.94 37.3076C152.94 37.3189 152.937 37.331 152.937 37.3438V42.3545C152.936 42.5804 152.884 42.8097 152.713 42.9795C152.542 43.1486 152.3 43.2129 152.023 43.2129C151.527 43.2129 151.226 43.0388 151.059 42.8174C150.979 42.7123 150.937 42.6068 150.916 42.5273C150.905 42.4876 150.9 42.4535 150.896 42.4277C150.895 42.4149 150.893 42.4041 150.893 42.3955C150.892 42.3912 150.892 42.3869 150.892 42.3838V36.7578C150.892 35.9419 151.162 35.4439 151.599 35.1709C152.009 34.9145 152.517 34.8926 152.905 34.8926C153.585 34.8926 153.982 35.3174 154.195 35.7002C154.302 35.8914 154.368 36.0802 154.408 36.2197C154.428 36.29 154.441 36.3493 154.45 36.3916C154.454 36.4082 154.456 36.4224 154.458 36.4336L155.488 40.1611L156.516 36.4492C156.516 36.447 156.517 36.4441 156.518 36.4414C156.52 36.4292 156.523 36.4124 156.527 36.3916C156.536 36.3493 156.549 36.29 156.569 36.2197C156.609 36.0801 156.677 35.8915 156.783 35.7002C156.989 35.3306 157.366 34.9233 158.003 34.8955C158.025 34.8891 158.048 34.8848 158.072 34.8848ZM63.4307 34.8535C65.7307 34.8535 67.5908 36.7137 67.5908 39.0137C67.5908 41.3137 65.7307 43.1738 63.4307 43.1738C61.1307 43.1738 59.2705 41.3137 59.2705 39.0137C59.2706 36.7137 61.1307 34.8536 63.4307 34.8535ZM63.4307 36.8057C62.1873 36.8057 61.1836 37.8094 61.1836 39.0527C61.1836 40.2961 62.1873 41.3007 63.4307 41.3008C64.6741 41.3008 65.6787 40.2961 65.6787 39.0527C65.6787 37.8094 64.674 36.8057 63.4307 36.8057ZM107.557 39.209H108.896L108.227 37.0889L107.557 39.209ZM145.067 39.209H146.407L145.737 37.0889L145.067 39.209ZM72.5898 36.7529C72.2649 36.7379 71.9333 36.7725 71.6797 36.8115C71.5934 36.8248 71.5171 36.8393 71.4541 36.8516V38.2383C71.5149 38.252 71.5883 38.2697 71.6719 38.2852C71.9173 38.3305 72.2396 38.3733 72.5586 38.3701C72.8826 38.3668 73.1741 38.3164 73.3799 38.1973C73.5674 38.0886 73.6983 37.9167 73.709 37.6084L73.707 37.4893C73.6878 37.2271 73.5715 37.0708 73.4131 36.9658C73.213 36.8334 72.9203 36.7682 72.5898 36.7529ZM121.967 35.2441C122.411 35.2441 122.771 35.6039 122.771 36.0479C122.771 36.4919 122.411 36.8525 121.967 36.8525C121.523 36.8523 121.163 36.4917 121.163 36.0479C121.163 35.6041 121.523 35.2444 121.967 35.2441Z" fill="white"/>
</g>
<defs>
<clipPath id="clip0_982_468">
<rect width="39.0243" height="39.0243" fill="white" transform="translate(0 2.09814)"/>
</clipPath>
<clipPath id="clip1_982_468">
<rect width="107.707" height="43.2207" fill="white" transform="translate(52.293)"/>
</clipPath>
</defs>
</svg>
